<?xml version="1.0" standalone="no"?>
<!DOCTYPE svg PUBLIC "-//W3C//DTD SVG 20010904//EN"
 "http://www.w3.org/TR/2001/REC-SVG-20010904/DTD/svg10.dtd">
<svg version="1.0" xmlns="http://www.w3.org/2000/svg"
 width="260.000000pt" height="260.000000pt" viewBox="0 0 260.000000 260.000000"
 preserveAspectRatio="xMidYMid meet">
<metadata>
Created by potrace 1.11, written by Peter Selinger 2001-2013
</metadata>
<g transform="translate(0.000000,260.000000) scale(0.100000,-0.100000)"
fill="#000000" stroke="none">
<path d="M1575 2546 c-103 -29 -133 -42 -248 -110 -158 -93 -291 -134 -429
-131 -38 0 -68 0 -68 0 0 -1 18 -42 39 -92 61 -141 93 -262 108 -413 3 -36 7
-74 8 -85 1 -11 3 -26 4 -32 2 -18 104 -17 199 3 116 24 188 50 282 104 112
64 212 100 315 115 22 3 52 8 66 11 15 3 50 5 78 6 28 0 53 3 55 6 2 4 -33
149 -78 322 l-81 315 -85 2 c-63 1 -106 -4 -165 -21z"/>
<path d="M665 2474 c-41 -44 -25 -113 29 -134 20 -7 28 -28 55 -139 18 -72 34
-139 36 -149 2 -9 10 -44 19 -77 22 -85 225 -914 242 -988 6 -25 9 -38 43
-176 17 -69 30 -125 28 -126 -1 -1 -69 -19 -152 -40 -82 -21 -152 -40 -154
-41 -2 -2 21 -25 50 -52 30 -27 74 -68 99 -90 51 -47 48 -46 121 -32 30 6 70
13 89 16 19 3 89 16 155 29 l119 24 63 -42 c67 -45 67 -45 54 -66 -7 -10 -21
-5 -67 26 -49 33 -64 39 -89 33 -25 -7 -160 -32 -230 -44 -44 -8 -91 -16 -115
-22 -14 -3 -32 -7 -40 -8 -18 -4 -40 13 -142 106 -122 112 -103 115 -176 -34
l-63 -131 26 -77 c14 -42 31 -77 38 -77 6 0 50 -10 97 -23 47 -12 92 -23 100
-25 8 -2 97 -24 197 -49 l182 -46 128 29 c144 32 393 90 408 95 11 3 -39 12
-260 47 l-140 22 -113 -31 c-108 -28 -113 -29 -122 -11 -9 16 -5 20 30 29 22
5 59 15 83 22 23 6 48 13 55 14 26 5 24 13 -7 39 -35 30 -39 43 -15 52 10 4
30 -9 57 -34 29 -28 54 -42 82 -47 22 -3 51 -8 65 -10 14 -3 102 -16 195 -31
94 -14 175 -27 182 -30 7 -2 15 10 19 28 4 18 9 37 10 42 1 6 9 39 18 75 8 35
13 67 11 70 -3 3 -71 71 -152 152 l-146 146 -140 -49 c-77 -27 -143 -49 -147
-49 -4 0 -10 8 -12 18 -4 16 7 23 64 41 38 13 67 26 63 29 -3 4 -44 19 -91 33
l-85 27 -67 -18 c-37 -10 -68 -17 -70 -15 -3 3 -38 142 -67 265 -2 8 -20 80
-40 160 -20 80 -38 152 -40 161 -11 52 -67 280 -75 309 -5 19 -48 194 -96 388
-84 343 -86 353 -71 390 13 32 13 42 2 69 -25 58 -89 71 -130 27z"/>
</g>
</svg>
