<svg xmlns="http://www.w3.org/2000/svg" xmlns:xlink="http://www.w3.org/1999/xlink" width="1920" height="1308" viewBox="0 0 1920 1308"><defs><clipPath id="a"><rect width="1920" height="1308" transform="translate(0 8452)" fill="#fff" stroke="#707070" stroke-width="1"/></clipPath><clipPath id="b"><path d="M-6056.094-5510.266s156.859,471.172,604.906,393.469,556.953-402.516,859.656-323.172,547.828,198.672,767.578,113.922,33.859-891.734,33.859-891.734l-2249.578,16.391Z" transform="translate(5974 6079)" fill="none" stroke="#1a1a1a" stroke-width="10"/></clipPath></defs><g transform="translate(0 -8452)" clip-path="url(#a)"><path d="M-5947.668-5184.9s210.849,255.327,520.018,204.853,558.311-341.686,806.854-337.484,488.266,280.313,889.913,194.231" transform="translate(-3887.757 3602.075) rotate(180)" fill="none" stroke="#3f3f3f" stroke-width="3"/><path d="M-5973.037-5137.67s236.217,241.779,545.387,186.548,530.213-340.3,778.757-335.7,494.522,249.121,918.011,178.943" transform="matrix(-1, -0.017, 0.017, -1, -3821.486, 3504.399)" fill="none" stroke="#3f3f3f" stroke-width="2"/><path d="M-5947.668-5163.884s217.27,307.933,535.855,247.06c165.663-31.654,316.341-143.74,457.749-215.187,83.275-39.545,153.91-70.509,249.2-16.406,106.544,63.353,335.055-34.768,459.708-17.182,153.617,21.672,340.467,118.781,581.79,76.008" transform="translate(-3775.041 3464.505) rotate(-179)" fill="none" stroke="#3f3f3f" stroke-width="1"/><path d="M-5949.125-3243.437s72.406-88.375,190.453-61.891,528.875,273.156,884.828,265.7,389.672-151.375,957.391,9.031" transform="translate(5901 12740)" fill="none" stroke="#3f3f3f" stroke-width="2"/><path d="M-5958.891-3222.3s75.133-89.008,193.18-62.523,533.063,210.766,855.766,226.016,425.773-132.187,993.492,28.219" transform="translate(5901 12791)" fill="none" stroke="#3f3f3f" stroke-width="1"/><path d="M5503.183-6662.22c-104.228-56.149,130.987-94.72,182.223-67.022s105.273,45.867,136.868,50.133-4.117,50.5-75.7,61.17S5607.41-6606.07,5503.183-6662.22Z" transform="translate(-4930 15445.453)" fill="none" stroke="#3f3f3f" stroke-width="1"/></g></svg>