<svg xmlns="http://www.w3.org/2000/svg" xmlns:xlink="http://www.w3.org/1999/xlink" width="1920" height="1372" viewBox="0 0 1920 1372"><defs><clipPath id="a"><rect width="1920" height="1372" transform="translate(0 6578)" fill="#fff" stroke="#707070" stroke-width="1"/></clipPath><clipPath id="b"><path d="M-6056.094-5510.266s156.859,471.172,604.906,393.469,556.953-402.516,859.656-323.172,547.828,198.672,767.578,113.922,33.859-891.734,33.859-891.734l-2249.578,16.391Z" transform="translate(5974 6079)" fill="none" stroke="#1a1a1a" stroke-width="10"/></clipPath></defs><g transform="translate(0 -6578)" clip-path="url(#a)"><path d="M-5947.668-5184.9s146.833,254.088,508.537,218.338,499.031-327.609,808.2-329.445,563.2,290.086,900.054,172.708" transform="translate(-3887.757 1712.075) rotate(180)" fill="none" stroke="#3f3f3f" stroke-width="3"/><path d="M-5937.225-5076.216s200.405,180.324,509.575,125.093,530.213-340.3,778.757-335.7,494.522,249.121,918.011,178.943" transform="matrix(-1, -0.017, 0.017, -1, -3821.486, 1596.399)" fill="none" stroke="#3f3f3f" stroke-width="2" stroke-dasharray="11 0"/><path d="M-5939.4-5050.441s209,194.49,527.587,133.617,546.361-375.059,802.474-369.99,509.583,274.569,945.969,197.222" transform="translate(-3609.355 1403.081) rotate(-177)" fill="none" stroke="#3f3f3f" stroke-width="1"/><path d="M-5984.906-3250.82s157.164-135.219,329.57-55.844,409.156,257.859,765.109,250.406,406.055-134.742,973.773,25.664" transform="translate(5896 10853)" fill="none" stroke="#3f3f3f" stroke-width="3" stroke-dasharray="11 0"/><path d="M-6058.523-3156.82s99.641-108.383,292.391-84.016,310.063,250.1,776.031,266.242,527.922-132.4,1058.125,32.2" transform="translate(5926 10808)" fill="none" stroke="#3f3f3f" stroke-width="2" stroke-dasharray="11 0"/><path d="M7217.836-7808.289s150.523-43.687,236.016-16.289,152.211,62.938,220.266,102.68-2.8,54.508-114.484,34.984-241.492-105.164-359.9-57.859S7217.836-7808.289,7217.836-7808.289Z" transform="translate(-7275 15436)" fill="none" stroke="#707070" stroke-width="1"/><path d="M7238.789-7729.656s491.93,184.531,964.516,168.734,765.172-85.031,1048.047,51.164" transform="translate(-7275 15436)" fill="none" stroke="#707070" stroke-width="1"/></g></svg>