<svg xmlns="http://www.w3.org/2000/svg" xmlns:xlink="http://www.w3.org/1999/xlink" width="1920" height="1328" viewBox="0 0 1920 1328"><defs><clipPath id="a"><rect width="1920" height="1328" transform="translate(0 2398)" fill="#fff" stroke="#707070" stroke-width="1"/></clipPath><clipPath id="b"><path d="M-6056.094-5510.266s156.859,471.172,604.906,393.469,556.953-402.516,859.656-323.172,547.828,198.672,767.578,113.922,33.859-891.734,33.859-891.734l-2249.578,16.391Z" transform="translate(5974 6079)" fill="none" stroke="#1a1a1a" stroke-width="10"/></clipPath></defs><g transform="translate(0 -2398)" clip-path="url(#a)"><g transform="translate(1 617)"><path d="M-5947.668-5184.9s200.352,280.929,509.521,230.455,504.984-342.227,809.836-334.641,526.477,285.672,897.429,165.786" transform="translate(-3900.757 -3057.925) rotate(180)" fill="none" stroke="#3f3f3f" stroke-width="3"/><path d="M-5947.668-5175.284s195.843,298.947,505.012,243.716,556.528-348.162,805.072-343.563,483.213,237.432,906.7,167.253" transform="matrix(-1, -0.017, 0.017, -1, -3807.486, -3180.601)" fill="none" stroke="#3f3f3f" stroke-width="2"/><path d="M-5947.668-5163.884s236.429,306.515,555.014,245.643,737.8-282.607,993.915-277.539,303.408,122.95,739.791,45.6" transform="translate(-3590.355 -3393.919) rotate(-177)" fill="none" stroke="#3f3f3f" stroke-width="1"/><path d="M-6037.906-3204.312s91.828-146.469,303.867-112.625,368.984,250.992,786.563,255.539,643.422-182.4,1165.742,96.813" transform="translate(5901 6085)" fill="none" stroke="#3f3f3f" stroke-width="3"/><path d="M-5951.945-3143.773s115.289-83,220.164-62.719,303.211,223.883,769.18,240.023,525.75-128.742,1055.953,35.852" transform="translate(5901 6023)" fill="none" stroke="#707070" stroke-width="1"/><path d="M1164.37,1952.7c25.269,25.087-253.529,187.255-390.333,184.656s-179.3-35.315-133.912-56.854,157.078-22.266,270.953-60.406S1139.1,1927.611,1164.37,1952.7Z" transform="translate(-7 -8)" fill="none" stroke="#707070" stroke-width="1"/></g></g></svg>