<svg xmlns="http://www.w3.org/2000/svg" xmlns:xlink="http://www.w3.org/1999/xlink" width="1920" height="1382" viewBox="0 0 1920 1382"><defs><clipPath id="a"><rect width="1920" height="1382" transform="translate(0 2246)" fill="#fff" stroke="#3f3f3f" stroke-width="1"/></clipPath><clipPath id="b"><path d="M-6056.094-5510.266s156.859,471.172,604.906,393.469,556.953-402.516,859.656-323.172,547.828,198.672,767.578,113.922,33.859-891.734,33.859-891.734l-2249.578,16.391Z" transform="translate(5974 6079)" fill="none" stroke="#1a1a1a" stroke-width="10"/></clipPath></defs><g transform="translate(0 -2246)" clip-path="url(#a)"><path d="M-5947.668-5184.9s181.773,264.827,490.943,214.354c166.641-27.205,244.978-80.737,377.625-162.523,113.472-69.963,260.973-175.112,400.664-176.437,429.039-4.07,460.391,302.086,951.969,172.8" transform="translate(-3914.757 -2565.925) rotate(180)" fill="none" stroke="#3f3f3f" stroke-width="3" stroke-dasharray="11 0"/><path d="M-5933.4-5156.826s196.577,260.935,505.747,205.7c119.958-21.43,223.425-79.927,319.772-143.308,151.677-99.779,285.468-211.6,437.577-208.783,248.543,4.6,515.93,265.514,939.418,195.335" transform="matrix(-1, -0.017, 0.017, -1, -3833.486, -2681.601)" fill="none" stroke="#3f3f3f" stroke-width="2" stroke-dasharray="11 0"/><path d="M-5947.668-5163.884s217.27,307.933,535.855,247.06c127.434-24.349,240.337-89.228,345.965-157.75,33.469-21.712,66.236-43.8,98.5-65.09,121.579-80.226,236.61-149.552,358.007-147.15,256.113,5.068,509.583,274.569,945.969,197.222" transform="translate(-3633.355 -2869.919) rotate(-177)" fill="none" stroke="#3f3f3f" stroke-width="1"/><path d="M5658.813-12850.692c78.047-.151,153.68,7.21,308.2-91.575s-161.836-113.137-282.094-109.315S5421.691-12988,5417.7-12942.268,5580.766-12850.542,5658.813-12850.692Z" transform="translate(-4956 15463.977)" fill="none" stroke="#3f3f3f" stroke-width="1"/><path d="M4711.406-13151.555S5177.68-13003.7,5336-12994.365s160.282-71.625,386-74.549,305.7,74.039,426.68,34.906,416.391-251.547,794.5,74.563" transform="translate(-4956 15436)" fill="none" stroke="#3f3f3f" stroke-width="0.5"/><path d="M5675.508-12963.537c77.461-9.018,177.914-52.9,205.961-9.947s-49.094,112.352-179.055,108.727-204.062-32.07-197.977-60.828S5598.047-12954.52,5675.508-12963.537Z" transform="translate(-4956 15436)" fill="none" stroke="#3f3f3f" stroke-width="2"/><path d="M4644.414-12021.57c28.508-4.062,246.2-173.648,425.008-171.734s525.9,267.672,842.367,267.672,311.645-73.742,595.383-73.742,471.039,115.188,471.039,115.188" transform="translate(-4956 15436)" fill="none" stroke="#3f3f3f" stroke-width="3"/><path d="M4917.836-12120.031s12.977-49.109,153.82-43.516,528.312,273.992,840.086,273.992,469.758-126.58,723.055-77.278,301.633,97.817,301.633,97.817" transform="translate(-4956 15436)" fill="none" stroke="#3f3f3f" stroke-width="2"/><path d="M4909.188-12093.484s156.254-65.773,268.395-10.336c31.512,15.578,92.719,41.246,147.641,62.148,24.531,12.391,164.238,48.754-32.242,61.1-78.34.152-160.336-108.555-403.277-53.766" transform="translate(-4956 15436)" fill="none" stroke="#3f3f3f" stroke-width="2"/><path d="M4870.755-11980.844s142.12-88.777,294.526-14.633,208.391,44.2,239.719,25.406,249.238,70.508,249.238,70.508,76.431,35.035,215.41,46.18,449.68-96.638,654.219-95.734,446.328,132.234,446.328,132.234" transform="translate(-4956 15445)" fill="none" stroke="#3f3f3f" stroke-width="1"/></g></svg>