<svg xmlns="http://www.w3.org/2000/svg" xmlns:xlink="http://www.w3.org/1999/xlink" width="1920" height="1376" viewBox="0 0 1920 1376"><defs><clipPath id="a"><rect width="1920" height="1376" transform="translate(0 4288)" fill="#fff" stroke="#707070" stroke-width="1"/></clipPath></defs><g transform="translate(0 -4288)" clip-path="url(#a)"><path d="M-5947.668-5184.9s216.784,269.563,531.417,221.789,513.563-327.32,801.656-322.312,454.925,250.485,878.414,186.352" transform="translate(5790.689 10503.302)" fill="none" stroke="#3f3f3f" stroke-width="3"/><path d="M-5947.668-5175.284s232.342,282.173,541.512,226.942,547.187-335.4,795.73-330.8,456.055,241.439,879.543,171.261" transform="matrix(1, 0.017, -0.017, 1, 5697.418, 10625.978)" fill="none" stroke="#3f3f3f" stroke-width="2"/><path d="M-5947.668-5163.884s217.27,307.933,535.855,247.06,449.037-162.064,705.149-157,606.907,61.575,1043.293-15.772" transform="translate(5480.288 10839.296) rotate(3)" fill="none" stroke="#3f3f3f" stroke-width="1"/><path d="M-5971.138-3194.732s64.359-125.539,248.578-87.7,483.742,259.287,839.7,251.834,398.693-160.406,966.412,0" transform="translate(-3998.068 1389.377) rotate(180)" fill="none" stroke="#3f3f3f" stroke-width="3"/><path d="M-6000.146-3056.17s319.125,63.023,509.523-19.594,251.8,52.623,607.758,45.17,398.693-160.406,966.412,0" transform="translate(-3998.068 1341.377) rotate(180)" fill="none" stroke="#3f3f3f" stroke-width="2"/><path d="M-6006.021-3030.594s222.922,27.151,459.414-30.224,362.859,37.677,718.813,30.224,470.57-171.013,909.828,47.448" transform="translate(-3998.068 1304.377) rotate(180)" fill="none" stroke="#3f3f3f" stroke-width="1"/><path d="M9279.414-10984.617s-387.586-66.523-455.953,20.289,300.422,237.531,410.906,67.563S9279.414-10984.617,9279.414-10984.617Z" transform="translate(-7275 15436)" fill="none" stroke="#707070" stroke-width="1"/><path d="M9306.18-10957.961s-278.055-22.734-347.43,0-24.664,57.891-24.664,57.891,150.9,75.789,290.836-12.164" transform="translate(-7275 15436)" fill="none" stroke="#707070" stroke-width="3"/><path d="M8465.453-10111.536c141.344,5.977,396.758,71.962,386.922,113.176-5.823,24.4-100.552,19.744-197.25,14.629-66.335-3.509-124.362-9.861-189.672-14.629-160.07-11.687-309.234,16.13-341.445-16.125S8324.109-10117.514,8465.453-10111.536Z" transform="translate(-7767.124 15019.58) rotate(3)" fill="none" stroke="#707070" stroke-width="1"/></g></svg>