<svg xmlns="http://www.w3.org/2000/svg" xmlns:xlink="http://www.w3.org/1999/xlink" width="1920" height="1299" viewBox="0 0 1920 1299"><defs><clipPath id="a"><rect width="1920" height="1299" transform="translate(0 4919)" fill="#fff" stroke="#707070" stroke-width="1"/></clipPath><clipPath id="b"><path d="M-6056.094-5510.266s156.859,471.172,604.906,393.469,556.953-402.516,859.656-323.172,547.828,198.672,767.578,113.922,33.859-891.734,33.859-891.734l-2249.578,16.391Z" transform="translate(5974 6079)" fill="none" stroke="#1a1a1a" stroke-width="10"/></clipPath></defs><g transform="translate(0 -4919)" clip-path="url(#a)"><path d="M-5947.668-5184.9s210.849,255.327,520.018,204.853,530.213-310.985,778.757-306.783,494.522,227.663,918.011,163.53" transform="translate(-3921.757 40.074) rotate(180)" fill="none" stroke="#3f3f3f" stroke-width="3" stroke-dasharray="11 0"/><path d="M-5947.668-5175.284s210.849,279.392,520.018,224.161,530.213-340.3,778.757-335.7,494.522,249.121,918.011,178.943" transform="matrix(-1, -0.017, 0.017, -1, -3840.486, -75.602)" fill="none" stroke="#3f3f3f" stroke-width="2" stroke-dasharray="11 0"/><path d="M-5947.668-5163.884s217.27,307.933,535.855,247.06,546.361-375.059,802.474-369.99,509.583,274.569,945.969,197.222" transform="translate(-3623.355 -263.918) rotate(-177)" fill="none" stroke="#3f3f3f" stroke-width="1"/><path d="M9508.086-9503.375s67.094-85.727,273.68-47.109,431.313,255.117,827.68,244.7,536.813-160.93,971.969,25.219" transform="translate(-9594 15436)" fill="none" stroke="#3f3f3f" stroke-width="2"/><path d="M9498.388-9444.727s77.879-133.026,284.465-94.409,424.37,255.1,820.737,244.682,626.187-158.3,972.889,37.259" transform="matrix(1, -0.017, 0.017, 1, -9427.983, 15653.597)" fill="none" stroke="#3f3f3f" stroke-width="1"/></g></svg>