<svg xmlns="http://www.w3.org/2000/svg" xmlns:xlink="http://www.w3.org/1999/xlink" width="1920" height="1320" viewBox="0 0 1920 1320"><defs><clipPath id="a"><rect width="1920" height="1320" transform="translate(0 4801)" fill="#fff" stroke="#707070" stroke-width="1"/></clipPath></defs><g transform="translate(0 -4801)" clip-path="url(#a)"><path d="M-5947.668-5184.9s210.849,255.327,520.018,204.853,558.77-333.54,807.313-329.337,465.966,250.218,889.455,186.084" transform="translate(5790.689 10992.302)" fill="none" stroke="#3f3f3f" stroke-width="3"/><path d="M-5947.668-5175.284s210.849,279.392,520.018,224.161,530.213-340.3,778.757-335.7c126.259,2.336,251.857,66.587,400.583,120.111,143.682,51.708,309.07,93.359,517.428,58.832" transform="matrix(1, 0.017, -0.017, 1, 5697.418, 11102.978)" fill="none" stroke="#3f3f3f" stroke-width="2"/><path d="M-5947.668-5163.884s217.27,307.933,535.855,247.06,548.545-246.9,804.658-241.828,497.1,93.866,933.488,16.519" transform="translate(5483.288 11303.296) rotate(3)" fill="none" stroke="#3f3f3f" stroke-width="1"/><path d="M-5949.125-3243.437s72.406-88.375,190.453-61.891c100.1,22.458,182.338,82.987,384.44,168.83s376.768,87.258,430.875,86.125c355.953-7.453,459.185-140.627,1026.9,19.779" transform="translate(-3998.068 1868.377) rotate(180)" fill="none" stroke="#3f3f3f" stroke-width="3"/><path d="M-6054.833-2964.982s38.888-278.471,234.9-282.7c146.223-3.151,234.867,105.024,456.624,184.2,75.7,27.028,166.7,50.649,280.688,65.376,448.755,57.982,623.388-141.088,1153.591,23.506" transform="translate(-3998.068 1890.377) rotate(180)" fill="none" stroke="#3f3f3f" stroke-width="2"/><path d="M4937.914-10598.641s144.945,67.906,410.477,54.289,329.445-74.4,698.953-63.414,612.633,249.469,747.1,246.234,205.617-34.68,248.469-319.258" transform="translate(-4956 15436)" fill="none" stroke="#3f3f3f" stroke-width="1"/><path d="M6069.242-9666.891c140.617.023,221.227,43.07,313.789,87.57s55.375,65.883-46.773,53.734-144.414-47.789-306.32-40.977-207.586,63.914-240.125,32.078S5928.625-9666.914,6069.242-9666.891Z" transform="translate(-4956 15436)" fill="none" stroke="#3f3f3f" stroke-width="2"/></g></svg>