<svg xmlns="http://www.w3.org/2000/svg" xmlns:xlink="http://www.w3.org/1999/xlink" width="1920" height="1339" viewBox="0 0 1920 1339"><defs><clipPath id="a"><rect width="1920" height="1339" transform="translate(0 8443)" fill="#fff" stroke="#707070" stroke-width="1"/></clipPath><clipPath id="b"><path d="M-6056.094-5510.266s156.859,471.172,604.906,393.469,556.953-402.516,859.656-323.172,547.828,198.672,767.578,113.922,33.859-891.734,33.859-891.734l-2249.578,16.391Z" transform="translate(5974 6079)" fill="none" stroke="#1a1a1a" stroke-width="10"/></clipPath></defs><g transform="translate(0 -8443)" clip-path="url(#a)"><path d="M-5947.668-5184.9s225.219,263.538,534.388,213.064,532.984-341.844,793.367-338.055,537.1,282.367,817.375,186.672" transform="translate(-3887.757 3602.075) rotate(180)" fill="none" stroke="#3f3f3f" stroke-width="3"/><path d="M-5964.427-5169.021s227.607,273.129,536.776,217.9,530.213-340.3,778.757-335.7,494.522,249.121,918.011,178.943" transform="matrix(-1, -0.017, 0.017, -1, -3821.486, 3479.399)" fill="none" stroke="#3f3f3f" stroke-width="2"/><path d="M-5947.668-5163.884s217.27,307.933,535.855,247.06,546.361-375.059,802.474-369.99,509.583,274.569,945.969,197.222" transform="translate(-3604.355 3274.081) rotate(-177)" fill="none" stroke="#3f3f3f" stroke-width="1"/><path d="M-6081.789-3117.117s99.242-225.328,318-195.844,530.8,274.633,886.758,267.18,392.859-145.219,960.578,15.188" transform="translate(5901 12744)" fill="none" stroke="#3f3f3f" stroke-width="3"/><path d="M-6081.789-3117.117s95.484-41.148,314.242-11.664,534.563,90.453,890.516,83,392.859-145.219,960.578,15.188" transform="translate(5901 12780)" fill="none" stroke="#3f3f3f" stroke-width="3"/><path d="M7233.828-5930.031s135.93-72.68,473.406,80.023-111.719,36.727-111.719,36.727-245.914-60.922-413.125-36.727" transform="translate(-7275 15436)" fill="none" stroke="#707070" stroke-width="1"/></g></svg>