<svg xmlns="http://www.w3.org/2000/svg" xmlns:xlink="http://www.w3.org/1999/xlink" width="1920" height="1278" viewBox="0 0 1920 1278"><defs><clipPath id="a"><rect width="1920" height="1278" transform="translate(0 6602)" fill="#fff" stroke="#707070" stroke-width="1"/></clipPath><clipPath id="b"><path d="M-6056.094-5510.266s156.859,471.172,604.906,393.469,556.953-402.516,859.656-323.172,547.828,198.672,767.578,113.922,33.859-891.734,33.859-891.734l-2249.578,16.391Z" transform="translate(5974 6079)" fill="none" stroke="#1a1a1a" stroke-width="10"/></clipPath></defs><g transform="translate(0 -6602)" clip-path="url(#a)"><path d="M-5947.668-5184.9s180.054,247.931,520.018,204.853,551.084-334.428,799.628-330.226,473.651,251.106,897.14,186.973" transform="translate(-3887.757 1722.075) rotate(180)" fill="none" stroke="#3f3f3f" stroke-width="3"/><path d="M-5969.8-5121.107s232.982,225.215,542.152,169.984,530.213-340.3,778.757-335.7,494.522,249.121,918.011,178.943" transform="matrix(-1, -0.017, 0.017, -1, -3821.486, 1626.399)" fill="none" stroke="#3f3f3f" stroke-width="2"/><path d="M-5928.965-5094.188s227.139,241.34,545.724,180.467c169.8-32.445,327.707-158.671,459.355-210.649,115.055-45.427,196.831-4.994,316.437-2.627,110.128,2.179,239.845-69.26,361.131-48.607,161.647,27.526,335.2,99.822,583.944,55.734" transform="translate(-3593.355 1441.081) rotate(-177)" fill="none" stroke="#3f3f3f" stroke-width="1"/><path d="M-5949.125-3243.437s72.406-88.375,190.453-61.891,502.039,268.672,857.992,261.219,416.508-146.891,984.227,13.516" transform="translate(5901 10857)" fill="none" stroke="#3f3f3f" stroke-width="3"/><path d="M-6007.484-3194.414s42.094-117.672,228.125-91.633,354.156,236,820.125,252.141c288.433,9.991,475.039-63.169,636.633-57.6,98.847,3.405,218.982,19.781,420.992,82.492" transform="translate(5901 10889)" fill="none" stroke="#3f3f3f" stroke-width="1"/><path d="M5551.535-8582.707c88.031-15.414,135.258-31.227,226.387,0s149.727,26.574,71.133,66.531-186.93,62.906-338.5,0S5463.5-8567.293,5551.535-8582.707Z" transform="translate(-4956 15436)" fill="none" stroke="#3f3f3f" stroke-width="2"/><path d="M5653.676-8574.7c53.188-8.1,117.781,10.977,119.113,28.566s-11.1,47.465-108.863,35.887-134.246-26.652-142.375-35.887S5600.488-8566.594,5653.676-8574.7Z" transform="translate(-4956 15436)" fill="none" stroke="#3f3f3f" stroke-width="3"/></g></svg>