<svg xmlns="http://www.w3.org/2000/svg" xmlns:xlink="http://www.w3.org/1999/xlink" width="1920" height="1283" viewBox="0 0 1920 1283"><defs><clipPath id="a"><rect width="1920" height="1283" transform="translate(0 2968)" fill="#fff" stroke="#707070" stroke-width="1"/></clipPath><clipPath id="b"><path d="M-6056.094-5510.266s156.859,471.172,604.906,393.469,556.953-402.516,859.656-323.172,547.828,198.672,767.578,113.922,33.859-891.734,33.859-891.734l-2249.578,16.391Z" transform="translate(5974 6079)" fill="none" stroke="#1a1a1a" stroke-width="10"/></clipPath></defs><g transform="translate(0 -2968)" clip-path="url(#a)"><g transform="translate(1893.536 7904.375) rotate(180)"><path d="M-5946.277-5124.645s211.057,212.442,520.227,161.969,528.614-328.352,777.157-324.149,407.456,245.048,830.944,180.915" transform="translate(-3921.757 -1197.926) rotate(180)" fill="none" stroke="#3f3f3f" stroke-width="4" stroke-dasharray="11 0"/><path d="M-5966.633-5062.594s250.748,174.153,569.333,113.28,498.7-355.075,754.811-350.007,365.166,212.458,801.552,135.11" transform="translate(-3640.355 -1501.918) rotate(-177)" fill="none" stroke="#3f3f3f" stroke-width="2"/><path d="M4909.685-13021.109s267.688,29.031,426.312,26.744,165.99,2.924,391.711,0,270.54-20.23,391.515-59.363,457.813-206.013,787.109,13.9" transform="translate(-4963 16818)" fill="none" stroke="#3f3f3f" stroke-width="1"/><path d="M721.153,3971.038c-80.906-12.928-376.25-78.741-234.016-100.67s417.141,3.18,476.672-11.6,33.7,32.219-23.672,59.578S802.06,3983.966,721.153,3971.038Z" fill="none" stroke="#3f3f3f" stroke-width="2"/></g><path d="M9433.273-12444.422s265.828,88.227,497.383,88.531,437.57-109.844,776.648-48.531,591.219,348.617,876.344,203.453" transform="translate(-9594 15436)" fill="none" stroke="#3f3f3f" stroke-width="2"/><path d="M9522.3-12452.477s241.383,76.008,445.008,55.531,486.148-90.8,678.094-65.242,348.258,111.688,593.813,221.813,364.039-71.711,364.039-71.711" transform="translate(-9594 15436)" fill="none" stroke="#3f3f3f" stroke-width="1"/></g></svg>