<svg xmlns="http://www.w3.org/2000/svg" xmlns:xlink="http://www.w3.org/1999/xlink" width="1920" height="1322" viewBox="0 0 1920 1322"><defs><clipPath id="a"><rect width="1920" height="1322" transform="translate(0 506)" fill="#fff" stroke="#707070" stroke-width="1"/></clipPath><clipPath id="b"><path d="M-6056.094-5510.266s156.859,471.172,604.906,393.469,556.953-402.516,859.656-323.172,547.828,198.672,767.578,113.922,33.859-891.734,33.859-891.734l-2249.578,16.391Z" transform="translate(5974 6079)" fill="none" stroke="#1a1a1a" stroke-width="10"/></clipPath></defs><g transform="translate(0 -506)" clip-path="url(#a)"><path d="M-5947.668-5184.9s210.849,255.327,520.018,204.853,551.03-343.1,799.573-338.9,473.706,259.778,897.194,195.645" transform="translate(-3887.757 -4333.925) rotate(180)" fill="none" stroke="#3f3f3f" stroke-width="3"/><path d="M-5947.668-5175.284s213.534,221.557,522.7,166.326,549.647-347.582,798.19-342.983c166.771,3.085,314.907,92.714,527.106,163.544,104.212,34.785,253.219,52,392.549,28.912" transform="matrix(-1, -0.017, 0.017, -1, -3794.486, -4489.601)" fill="none" stroke="#3f3f3f" stroke-width="2"/><path d="M-5979.2-5102.484s261.306,241.106,579.891,180.234,533.859-369.632,789.972-364.564,509.583,274.569,945.969,197.222" transform="translate(-3577.355 -4625.919) rotate(-177)" fill="none" stroke="#3f3f3f" stroke-width="2"/><path d="M-6015.258-3261.1s116.523-94.828,290.063-57.812,421.313,259.039,817.688,250.32,512.6-157.9,1073.367,33.453" transform="translate(5901 4833)" fill="none" stroke="#3f3f3f" stroke-width="3"/><path d="M-6029.312-3163.367s84.789-93.031,251.1-66.094,311.977,206.656,701.148,245.414,617.828-155.141,1148.031,9.453" transform="translate(5931 4775)" fill="none" stroke="#3f3f3f" stroke-width="2"/><path d="M7031.8-14803.328s74.547-62.2,367.7-8.5,392.094,198.125,667.359,206.8,501.388-304.8,834.8-299.852,485.586,186.4,485.586,186.4" transform="translate(-7275 15440)" fill="none" stroke="#3f3f3f" stroke-width="1"/></g></svg>