<svg xmlns="http://www.w3.org/2000/svg" xmlns:xlink="http://www.w3.org/1999/xlink" width="1920" height="1351" viewBox="0 0 1920 1351"><defs><clipPath id="a"><rect width="1920" height="1351" transform="translate(0 845)" fill="#fff" stroke="#707070" stroke-width="1"/></clipPath><clipPath id="b"><path d="M-6056.094-5510.266s156.859,471.172,604.906,393.469,556.953-402.516,859.656-323.172,547.828,198.672,767.578,113.922,33.859-891.734,33.859-891.734l-2249.578,16.391Z" transform="translate(5974 6079)" fill="none" stroke="#1a1a1a" stroke-width="10"/></clipPath></defs><g transform="translate(0 -845)" clip-path="url(#a)"><path d="M-5947.668-5184.9s210.849,255.327,520.018,204.853,534.7-313.562,783.245-309.36,590.18,281.711,913.522,166.107" transform="translate(-3921.757 -3995.926) rotate(180)" fill="none" stroke="#3f3f3f" stroke-width="4" stroke-dasharray="11 0"/><path d="M-5953.179-5150.012s216.359,254.121,525.529,198.89,530.213-340.3,778.757-335.7,494.522,249.121,918.011,178.943" transform="matrix(-1, -0.017, 0.017, -1, -3840.486, -4111.602)" fill="none" stroke="#3f3f3f" stroke-width="2" stroke-dasharray="11 0"/><path d="M-5960.114-5114.726s229.715,258.774,548.3,197.9,546.361-375.059,802.474-369.99,483.945,242.449,920.332,165.1" transform="translate(-3640.355 -4299.918) rotate(-177)" fill="none" stroke="#3f3f3f" stroke-width="1"/><path d="M5925.219-12902.875c209.364-136.448-138.312-72.568-247.511-59.573s-279.692-33.483-270.213,30.8S5715.854-12766.427,5925.219-12902.875Z" transform="translate(-4963 14006)" fill="none" stroke="#3f3f3f" stroke-width="2"/><path d="M4864.445-13069.078s312.677,81.091,482.055,68.484,309.667.464,436.12-26.281,215.627,12.279,336.6-26.854,457.813-206.013,787.109,13.9" transform="translate(-4963 14006)" fill="none" stroke="#3f3f3f" stroke-width="1"/><path d="M9394.953-13428.672s138.6-194.664,308.1-179.1,503.8,263.633,834.313,263.633,463.306-78.279,636.656-61.969,343.617,36.727,492.484,129.469" transform="translate(-9594 15436)" fill="none" stroke="#3f3f3f" stroke-width="3"/><path d="M9571.523-13555.672s118.516-57.617,257.422,25.625,197.789,69.227,178.148,100.484-247.969-48.273-310.6-22.18-160.828,6.875-184.656-20.484" transform="translate(-9584 15443)" fill="none" stroke="#3f3f3f" stroke-width="3"/><path d="M9545.344-13363.547s397.258-31.453,555.7-9.227,349.711,89.32,539.625,74.813,443.422-83.461,593.945-65.586,287.078,40.742,353.633,105.852" transform="translate(-9594 15436)" fill="none" stroke="#3f3f3f" stroke-width="2"/><path d="M9541.758-13321.836s392.75-35.625,506.961-20.664,316.7,91.148,554.406,83.4,480.375-88.047,637.234-62.734,295.945,50.945,340.664,110.828" transform="translate(-9594 15436)" fill="none" stroke="#3f3f3f" stroke-width="1"/></g></svg>