<svg xmlns="http://www.w3.org/2000/svg" width="342" height="342" viewBox="0 0 342 342">
  <defs>
    <style>
      .cls-1 {
        fill: #f9423a;
      }

      .cls-2 {
        fill: #5d0000;
      }
    </style>
  </defs>
  <g id="Group_2243" data-name="Group 2243" transform="translate(-4696 -8074)">
    <circle id="Ellipse_654" data-name="Ellipse 654" class="cls-1" cx="171" cy="171" r="171" transform="translate(4696 8074)"/>
    <g id="Group_1363" data-name="Group 1363" transform="translate(2152.844 5485.737)">
      <g id="Group_1074" data-name="Group 1074" transform="translate(2669.634 2710.426)">
        <g id="Group_1073" data-name="Group 1073">
          <path id="Path_3184" data-name="Path 3184" class="cls-2" d="M2628.957,2750.673a1.772,1.772,0,0,1-1.111-1.215c-.339-1.507.281-2.666,1.866-3.491q4.942-2.226,6.359-4.292t.526-6.049l-13.572-60.3q-.959-4.252-2.953-5.687t-7.016-1.42q-2.942-.033-3.419-2.162a1.936,1.936,0,0,1,.387-1.693,3.013,3.013,0,0,1,1.789-1.029q4.785-1.077,10.051-1.842,6.708-1.228,9.23-1.8a73,73,0,0,0,7.184-2.173,88.871,88.871,0,0,1,11.643-3.457q16.336-3.678,27.471,1.145t13.853,16.91a34.289,34.289,0,0,1-.178,16.577,28.267,28.267,0,0,1-8.482,13.77q-6.368,5.832-16.993,8.222a11.552,11.552,0,0,1-5.617.146,3.162,3.162,0,0,1-2.524-2.221,1.839,1.839,0,0,1,.52-1.724,2.97,2.97,0,0,1,1.527-.969,12.876,12.876,0,0,1,2.663-.251,13.349,13.349,0,0,0,2.8-.283q4.913-1.105,6.212-7.747t-.977-16.735q-2.779-12.354-7.5-17.223a11.4,11.4,0,0,0-11.364-3.373q-7.443,1.672-5.855,8.713l13.676,61.4q.9,3.985,3.448,5.087t8.824,1.084a3.526,3.526,0,0,1,2.138.5,2.753,2.753,0,0,1,1.016,1.724c.3,1.329-.263,2.151-1.676,2.472l-11.616,2.334-10.818,2.156q-2.39.537-9.505,2.416-5.227,1.6-10.27,2.73A2.712,2.712,0,0,1,2628.957,2750.673Z" transform="translate(-2609.584 -2652.468)"/>
        </g>
      </g>
      <g id="Group_1075" data-name="Group 1075" transform="translate(2615.823 2660.069)">
        <path id="Path_3185" data-name="Path 3185" class="cls-2" d="M2686.55,2829.1a98.137,98.137,0,1,1,95.919-119.7h0a98.27,98.27,0,0,1-95.919,119.7Zm.205-189.223a91.061,91.061,0,1,0,88.823,71.076A90.9,90.9,0,0,0,2686.756,2639.882Z" transform="translate(-2588.586 -2632.818)"/>
      </g>
      <g id="Group_1076" data-name="Group 1076" transform="translate(2571.156 2615.38)">
        <path id="Path_3186" data-name="Path 3186" class="cls-2" d="M2713.956,2901.018c-65.3,0-124.377-45.156-139.3-111.469-17.285-76.821,31.152-153.385,107.972-170.67s153.385,31.148,170.672,107.97h0c17.284,76.823-31.152,153.386-107.974,170.671A142.922,142.922,0,0,1,2713.956,2901.018Zm.038-278.463a135.479,135.479,0,0,0-29.789,3.324c-72.961,16.415-118.966,89.131-102.548,162.094s89.132,118.965,162.093,102.546,118.965-89.134,102.548-162.094C2832.127,2665.45,2776.006,2622.555,2713.994,2622.555Z" transform="translate(-2571.156 -2615.38)"/>
      </g>
      <g id="Group_1115" data-name="Group 1115" transform="translate(2592.059 2634.841)">
        <g id="Group_1077" data-name="Group 1077" transform="translate(0 94.001)">
          <path id="Path_3187" data-name="Path 3187" class="cls-2" d="M2582.32,2660.457a4.589,4.589,0,0,1,3.9-.656,4.394,4.394,0,0,1,3.285,2.148,7.07,7.07,0,0,1,.253,4.569l-.356,1.751,3.675.742-.593,2.939-13.167-2.658.935-4.653A6.921,6.921,0,0,1,2582.32,2660.457Zm4.745,3.2a2.59,2.59,0,0,0-1.63-.874,1.867,1.867,0,0,0-1.754.36,3.842,3.842,0,0,0-.916,2.039l-.338,1.679,4.428.895.4-1.98A2.7,2.7,0,0,0,2587.065,2663.661Z" transform="translate(-2579.313 -2659.655)"/>
        </g>
        <g id="Group_1078" data-name="Group 1078" transform="translate(3.867 84.453)">
          <path id="Path_3188" data-name="Path 3188" class="cls-2" d="M2580.823,2658.783l.909-2.855,12.8,4.068-.907,2.857Z" transform="translate(-2580.823 -2655.928)"/>
        </g>
        <g id="Group_1079" data-name="Group 1079" transform="translate(8.776 67.5)">
          <path id="Path_3189" data-name="Path 3189" class="cls-2" d="M2596.332,2653.9a7.314,7.314,0,0,1-4.179,9.124,7.032,7.032,0,0,1-9-4.128,7.33,7.33,0,0,1,4.182-9.122,7.03,7.03,0,0,1,8.995,4.126Zm-4.912-1.133a4.384,4.384,0,0,0-3.267-.227,3.8,3.8,0,0,0-2.361,5.153,4.634,4.634,0,0,0,5.562,2.553,3.822,3.822,0,0,0,2.365-5.154A4.364,4.364,0,0,0,2591.42,2652.769Z" transform="translate(-2582.737 -2649.313)"/>
        </g>
        <g id="Group_1080" data-name="Group 1080" transform="translate(16.138 49.15)">
          <path id="Path_3190" data-name="Path 3190" class="cls-2" d="M2590.873,2644.638l1.679-2.485,11.132,7.519-1.679,2.486-10.556.592,6.969,4.712-1.674,2.483-11.136-7.518,1.575-2.328,10.856-.62Z" transform="translate(-2585.608 -2642.153)"/>
        </g>
        <g id="Group_1081" data-name="Group 1081" transform="translate(27.864 36.159)">
          <path id="Path_3191" data-name="Path 3191" class="cls-2" d="M2596.74,2637.083l1.968,1.81-4.527,4.922,2.035,1.873,4.074-4.424,1.88,1.727-4.075,4.429,2.051,1.885,4.673-5.074,1.952,1.8-6.7,7.285-9.885-9.1Z" transform="translate(-2590.186 -2637.083)"/>
        </g>
        <g id="Group_1082" data-name="Group 1082" transform="translate(39.565 25.14)">
          <path id="Path_3192" data-name="Path 3192" class="cls-2" d="M2602.209,2632.784l1.7,2.057-5.147,4.268,1.765,2.132,4.631-3.839,1.632,1.97-4.631,3.838,1.775,2.147,5.313-4.406,1.691,2.043-7.619,6.317-8.572-10.346Z" transform="translate(-2594.751 -2632.784)"/>
        </g>
        <g id="Group_1083" data-name="Group 1083" transform="translate(52.684 16.909)">
          <path id="Path_3193" data-name="Path 3193" class="cls-2" d="M2611.487,2631.787q1.7,2.747.015,4.89l5.417,2.3-3.14,1.938-4.785-2.086-1.77,1.092,2.253,3.651-2.55,1.571-7.058-11.434,4.336-2.673c1.778-1.1,3.229-1.581,4.359-1.445A4.066,4.066,0,0,1,2611.487,2631.787Zm-2.237,3.255a2.035,2.035,0,0,0-.359-1.642,1.717,1.717,0,0,0-1.271-.969,3.7,3.7,0,0,0-1.928.72l-1.917,1.179,2.085,3.388,1.869-1.156A3.228,3.228,0,0,0,2609.25,2635.042Z" transform="translate(-2599.871 -2629.572)"/>
        </g>
        <g id="Group_1084" data-name="Group 1084" transform="translate(76.21 6.37)">
          <path id="Path_3194" data-name="Path 3194" class="cls-2" d="M2619.063,2638.389l-5.546,1.956-4.468-12.671,4.931-1.738a7.653,7.653,0,0,1,2.33-.477,3.421,3.421,0,0,1,1.7.342,3.492,3.492,0,0,1,1.632,1.909,2.775,2.775,0,0,1-.182,2.555,3.954,3.954,0,0,1-.341.474c-.074.069-.2.2-.379.371a3.514,3.514,0,0,1,2.247.4,3.118,3.118,0,0,1,1.4,1.756,3.612,3.612,0,0,1-.079,2.66Q2621.674,2637.47,2619.063,2638.389Zm-5.379-6.581,1.344-.475a4.817,4.817,0,0,0,1.659-.867,1.142,1.142,0,0,0,.187-1.3q-.3-.846-.92-.933a4.429,4.429,0,0,0-1.871.355l-1.36.48Zm1.817,5.148,1.941-.684a4.564,4.564,0,0,0,1.712-.941,1.261,1.261,0,0,0,.192-1.394,1.193,1.193,0,0,0-1.051-.93,5.784,5.784,0,0,0-2.158.443l-1.665.587Z" transform="translate(-2609.05 -2625.459)"/>
        </g>
        <g id="Group_1085" data-name="Group 1085" transform="translate(92.79 2.04)">
          <path id="Path_3195" data-name="Path 3195" class="cls-2" d="M2627.071,2627.291q.621,3.166-1.705,4.584l4.265,4.059-3.622.713-3.746-3.632-2.038.4.824,4.2-2.941.579-2.588-13.184,5-.979a7.25,7.25,0,0,1,4.591.177A4.071,4.071,0,0,1,2627.071,2627.291Zm-3.235,2.259a2.025,2.025,0,0,0,.237-1.661,1.689,1.689,0,0,0-.852-1.35,3.677,3.677,0,0,0-2.058-.009l-2.206.434.766,3.906,2.149-.423A3.243,3.243,0,0,0,2623.837,2629.55Z" transform="translate(-2615.521 -2623.769)"/>
        </g>
        <g id="Group_1086" data-name="Group 1086" transform="translate(109.65)">
          <path id="Path_3196" data-name="Path 3196" class="cls-2" d="M2633.408,2636.276l-1.375-2.842-5.631.25-1.115,2.955-3.188.143,5.2-13.682,2.9-.129,6.4,13.159Zm-4.471-9.247L2627.42,2631l3.357-.15Z" transform="translate(-2622.1 -2622.973)"/>
        </g>
        <g id="Group_1087" data-name="Group 1087" transform="translate(127.878 0.013)">
          <path id="Path_3197" data-name="Path 3197" class="cls-2" d="M2640.035,2624.014l2.979.332-1.481,13.353-2.981-.331-5.436-9.072-.925,8.368-2.977-.331,1.476-13.355,2.792.31,5.6,9.326Z" transform="translate(-2629.213 -2622.978)"/>
        </g>
        <g id="Group_1088" data-name="Group 1088" transform="translate(145.666 2.867)">
          <path id="Path_3198" data-name="Path 3198" class="cls-2" d="M2649.149,2628.517a6.3,6.3,0,0,1,.556,5.227,6.6,6.6,0,0,1-3.124,4.282q-2.291,1.261-6,.243l-4.43-1.222,3.568-12.954,4.576,1.26A7.918,7.918,0,0,1,2649.149,2628.517Zm-4.242,7.114a3.96,3.96,0,0,0,1.869-2.614,4.051,4.051,0,0,0-.259-3.234,4.715,4.715,0,0,0-2.986-1.927l-1.614-.446-2.168,7.876,1.834.509A4.441,4.441,0,0,0,2644.907,2635.63Z" transform="translate(-2636.153 -2624.093)"/>
        </g>
        <g id="Group_1089" data-name="Group 1089" transform="translate(169.066 12.923)">
          <path id="Path_3199" data-name="Path 3199" class="cls-2" d="M2652.873,2630.806a1.15,1.15,0,0,0-.817.633,1.064,1.064,0,0,0,.036,1.072,9.657,9.657,0,0,0,1.79,1.855,6.893,6.893,0,0,1,1.977,2.626,3.477,3.477,0,0,1-.335,2.924,3.609,3.609,0,0,1-2.557,1.972,5.389,5.389,0,0,1-3.68-.651,8.265,8.265,0,0,1-4-4.756l2.6-1.115a6.365,6.365,0,0,0,2.681,3.545,2.107,2.107,0,0,0,1.314.286,1.151,1.151,0,0,0,.864-.635,1.119,1.119,0,0,0,0-1.082,6.575,6.575,0,0,0-1.419-1.555,8.564,8.564,0,0,1-2.371-2.873,3.421,3.421,0,0,1,.335-2.992,3.476,3.476,0,0,1,2.584-1.977,5.5,5.5,0,0,1,3.521.667,8.207,8.207,0,0,1,2.169,1.653,7.082,7.082,0,0,1,1.474,2.244l-2.358,1.238a5.934,5.934,0,0,0-2.589-2.847A1.805,1.805,0,0,0,2652.873,2630.806Z" transform="translate(-2645.285 -2628.016)"/>
        </g>
        <g id="Group_1090" data-name="Group 1090" transform="translate(183.511 19.748)">
          <path id="Path_3200" data-name="Path 3200" class="cls-2" d="M2653.905,2640.959A2.46,2.46,0,0,0,2655,2642.9a2.426,2.426,0,0,0,2.174.415,3.967,3.967,0,0,0,2.09-1.635l4.331-6.019,2.432,1.748-4.387,6.1a5.971,5.971,0,0,1-3.931,2.7,6.236,6.236,0,0,1-6.713-4.839,5.949,5.949,0,0,1,1.3-4.583l4.385-6.1,2.434,1.753-4.333,6.023A3.949,3.949,0,0,0,2653.905,2640.959Z" transform="translate(-2650.921 -2630.68)"/>
        </g>
        <g id="Group_1091" data-name="Group 1091" transform="translate(194.883 31.26)">
          <path id="Path_3201" data-name="Path 3201" class="cls-2" d="M2670.52,2642.475a4.58,4.58,0,0,1-1.556,3.633,4.355,4.355,0,0,1-3.575,1.6,7.055,7.055,0,0,1-3.985-2.254l-1.281-1.243-2.611,2.69-2.153-2.085,9.352-9.648,3.407,3.3A6.9,6.9,0,0,1,2670.52,2642.475Zm-5.259,2.263a2.569,2.569,0,0,0,1.618-.9,1.878,1.878,0,0,0,.646-1.674,3.869,3.869,0,0,0-1.225-1.869l-1.231-1.189-3.141,3.241,1.448,1.406A2.69,2.69,0,0,0,2665.261,2644.738Z" transform="translate(-2655.358 -2635.172)"/>
        </g>
        <g id="Group_1092" data-name="Group 1092" transform="translate(205.618 43.625)">
          <path id="Path_3202" data-name="Path 3202" class="cls-2" d="M2674.888,2648.084a4.584,4.584,0,0,1-2.076,3.361,4.37,4.37,0,0,1-3.78,1.052,7.045,7.045,0,0,1-3.6-2.821l-1.084-1.422-2.979,2.267-1.82-2.383,10.687-8.142,2.877,3.774A6.909,6.909,0,0,1,2674.888,2648.084Zm-5.539,1.457a2.592,2.592,0,0,0,1.734-.649,1.875,1.875,0,0,0,.891-1.557,3.841,3.841,0,0,0-.936-2.03l-1.033-1.361-3.595,2.736,1.222,1.6A2.673,2.673,0,0,0,2669.35,2649.541Z" transform="translate(-2659.548 -2639.997)"/>
        </g>
        <g id="Group_1093" data-name="Group 1093" transform="translate(214.68 57.304)">
          <path id="Path_3203" data-name="Path 3203" class="cls-2" d="M2663.083,2652.18l11.563-6.845,1.525,2.579-9.263,5.483,2.922,4.932-2.3,1.36Z" transform="translate(-2663.083 -2645.334)"/>
        </g>
        <g id="Group_1094" data-name="Group 1094" transform="translate(221.763 67.447)">
          <path id="Path_3204" data-name="Path 3204" class="cls-2" d="M2667.073,2661.758l-1.225-2.74,4.844-2.159,5.525-7.565,1.324,2.964-3.376,4.69,5.746.608,1.327,2.965-9.322-.928Z" transform="translate(-2665.848 -2649.293)"/>
        </g>
        <g id="Group_1095" data-name="Group 1095" transform="translate(233.687 101.223)">
          <path id="Path_3205" data-name="Path 3205" class="cls-2" d="M2670.994,2663.6a2.692,2.692,0,1,1-.452,1.991A2.566,2.566,0,0,1,2670.994,2663.6Z" transform="translate(-2670.5 -2662.473)"/>
        </g>
        <g id="Group_1096" data-name="Group 1096" transform="translate(231.166 127.949)">
          <path id="Path_3206" data-name="Path 3206" class="cls-2" d="M2671.039,2684.459a7.315,7.315,0,0,1,1-9.981,7.026,7.026,0,0,1,9.85.987,7.314,7.314,0,0,1-1.007,9.981,7.021,7.021,0,0,1-9.845-.987Zm5.015-.52a4.379,4.379,0,0,0,3.167-.844,3.8,3.8,0,0,0,.567-5.637,4.638,4.638,0,0,0-6.092-.614,3.817,3.817,0,0,0-.563,5.643A4.354,4.354,0,0,0,2676.054,2683.939Z" transform="translate(-2669.517 -2672.9)"/>
        </g>
        <g id="Group_1097" data-name="Group 1097" transform="translate(227.906 147.015)">
          <path id="Path_3207" data-name="Path 3207" class="cls-2" d="M2672.479,2683.627a2.642,2.642,0,0,0-1.026,3.9,4.006,4.006,0,0,0,2.277,1.36l7.178,1.882-.762,2.9-7.27-1.909a5.974,5.974,0,0,1-3.931-2.7,6.239,6.239,0,0,1,2.109-8,5.969,5.969,0,0,1,4.746-.431l7.267,1.9-.761,2.9-7.176-1.883A3.961,3.961,0,0,0,2672.479,2683.627Z" transform="translate(-2668.245 -2680.341)"/>
        </g>
        <g id="Group_1098" data-name="Group 1098" transform="translate(222.752 164.556)">
          <path id="Path_3208" data-name="Path 3208" class="cls-2" d="M2676.233,2694.141l-10-4.191,1.162-2.765,10,4.191,1.471-3.511,2.392,1-4.1,9.789-2.392-1Z" transform="translate(-2666.233 -2687.185)"/>
        </g>
        <g id="Group_1099" data-name="Group 1099" transform="translate(215.466 174.791)">
          <path id="Path_3209" data-name="Path 3209" class="cls-2" d="M2672.019,2705.977a6.307,6.307,0,0,1-5.186-.855,6.607,6.607,0,0,1-3.3-4.15q-.61-2.548,1.361-5.845l2.353-3.948,11.537,6.884-2.429,4.076A7.914,7.914,0,0,1,2672.019,2705.977Zm-5.731-5.981a3.916,3.916,0,0,0,2.028,2.491,4.011,4.011,0,0,0,3.18.615,4.746,4.746,0,0,0,2.653-2.368l.856-1.435-7.015-4.187-.977,1.635A4.454,4.454,0,0,0,2666.288,2700Z" transform="translate(-2663.39 -2691.18)"/>
        </g>
        <g id="Group_1100" data-name="Group 1100" transform="translate(204.407 191.309)">
          <path id="Path_3210" data-name="Path 3210" class="cls-2" d="M2659.1,2705.348a7.315,7.315,0,0,1,6.454-7.686,7.035,7.035,0,0,1,7.582,6.367,7.322,7.322,0,0,1-6.453,7.683,7.037,7.037,0,0,1-7.583-6.363Zm4.439,2.4a4.417,4.417,0,0,0,3.091,1.086,3.8,3.8,0,0,0,3.643-4.344,4.635,4.635,0,0,0-4.688-3.936,3.822,3.822,0,0,0-3.646,4.341A4.38,4.38,0,0,0,2663.536,2707.744Z" transform="translate(-2659.075 -2697.625)"/>
        </g>
        <g id="Group_1101" data-name="Group 1101" transform="translate(190.915 204.935)">
          <path id="Path_3211" data-name="Path 3211" class="cls-2" d="M2653.839,2709.49a7.315,7.315,0,0,1,7.62-6.531,7.034,7.034,0,0,1,6.442,7.514,7.322,7.322,0,0,1-7.616,6.532,7.035,7.035,0,0,1-6.445-7.514Zm3.988,3.086a4.415,4.415,0,0,0,2.87,1.576,3.8,3.8,0,0,0,4.307-3.69,4.4,4.4,0,0,0-1.122-3.077,4.341,4.341,0,0,0-2.863-1.568,3.822,3.822,0,0,0-4.3,3.686A4.366,4.366,0,0,0,2657.827,2712.575Z" transform="translate(-2653.811 -2702.942)"/>
        </g>
        <g id="Group_1102" data-name="Group 1102" transform="translate(174.251 214.131)">
          <path id="Path_3212" data-name="Path 3212" class="cls-2" d="M2652.754,2719.9q-1.7-2.749-.023-4.9l-5.422-2.292,3.138-1.943,4.788,2.079,1.766-1.1-2.258-3.644,2.55-1.579,7.075,11.428-4.333,2.679a7.285,7.285,0,0,1-4.357,1.451A4.075,4.075,0,0,1,2652.754,2719.9Zm2.229-3.262a2.042,2.042,0,0,0,.364,1.643,1.7,1.7,0,0,0,1.271.963,3.749,3.749,0,0,0,1.933-.72l1.909-1.182-2.094-3.385-1.863,1.151A3.263,3.263,0,0,0,2654.983,2716.64Z" transform="translate(-2647.308 -2706.53)"/>
        </g>
        <g id="Group_1103" data-name="Group 1103" transform="translate(154.316 225.366)">
          <path id="Path_3213" data-name="Path 3213" class="cls-2" d="M2643.062,2712.88l5.543-1.966,4.493,12.657-4.925,1.753a7.542,7.542,0,0,1-2.328.479,3.413,3.413,0,0,1-1.7-.335,3.494,3.494,0,0,1-1.635-1.907,2.745,2.745,0,0,1,.175-2.553,3.333,3.333,0,0,1,.341-.476c.068-.073.195-.2.379-.37a3.536,3.536,0,0,1-2.25-.391,3.165,3.165,0,0,1-1.412-1.756,3.615,3.615,0,0,1,.082-2.658Q2640.457,2713.81,2643.062,2712.88Zm3.567,1.428-1.937.687a4.627,4.627,0,0,0-1.715.947,1.249,1.249,0,0,0-.189,1.392,1.2,1.2,0,0,0,1.056.93,5.879,5.879,0,0,0,2.152-.448l1.668-.591Zm1.828,5.146-1.343.47a4.9,4.9,0,0,0-1.656.876,1.138,1.138,0,0,0-.181,1.3c.2.561.507.872.921.926a4.4,4.4,0,0,0,1.87-.357l1.358-.484Z" transform="translate(-2639.529 -2710.915)"/>
        </g>
        <g id="Group_1104" data-name="Group 1104" transform="translate(137.097 230.204)">
          <path id="Path_3214" data-name="Path 3214" class="cls-2" d="M2635.383,2723.723q-.628-3.166,1.7-4.587l-4.27-4.052,3.618-.716,3.756,3.626,2.036-.407-.835-4.2,2.944-.582,2.609,13.177-4.994.99a7.327,7.327,0,0,1-4.587-.167A4.065,4.065,0,0,1,2635.383,2723.723Zm3.234-2.265a2.034,2.034,0,0,0-.241,1.661,1.711,1.711,0,0,0,.859,1.35,3.689,3.689,0,0,0,2.055,0l2.209-.44-.775-3.9-2.149.426A3.2,3.2,0,0,0,2638.617,2721.458Z" transform="translate(-2632.81 -2712.802)"/>
        </g>
        <g id="Group_1105" data-name="Group 1105" transform="translate(119.855 232.885)">
          <path id="Path_3215" data-name="Path 3215" class="cls-2" d="M2629.267,2714.372l1.382,2.843,5.627-.264,1.111-2.955,3.186-.148-5.173,13.689-2.9.136-6.421-13.155Zm4.487,9.239,1.513-3.974-3.361.154Z" transform="translate(-2626.083 -2713.849)"/>
        </g>
        <g id="Group_1106" data-name="Group 1106" transform="translate(102.336 232.006)">
          <path id="Path_3216" data-name="Path 3216" class="cls-2" d="M2622.228,2727.184l-2.983-.327,1.463-13.351,2.981.326,5.448,9.063.915-8.368,2.978.326-1.461,13.356-2.789-.3-5.612-9.316Z" transform="translate(-2619.245 -2713.506)"/>
        </g>
        <g id="Group_1107" data-name="Group 1107" transform="translate(84.476 229.262)">
          <path id="Path_3217" data-name="Path 3217" class="cls-2" d="M2613.145,2722.649a6.282,6.282,0,0,1-.559-5.222,6.6,6.6,0,0,1,3.117-4.289q2.284-1.269,6-.25l4.434,1.213-3.55,12.958-4.579-1.252A7.9,7.9,0,0,1,2613.145,2722.649Zm4.234-7.119a3.933,3.933,0,0,0-1.863,2.622,4.017,4.017,0,0,0,.261,3.223,4.72,4.72,0,0,0,2.992,1.927l1.611.444,2.158-7.879-1.838-.5A4.45,4.45,0,0,0,2617.379,2715.53Z" transform="translate(-2612.276 -2712.436)"/>
        </g>
        <g id="Group_1108" data-name="Group 1108" transform="translate(62.722 217.096)">
          <path id="Path_3218" data-name="Path 3218" class="cls-2" d="M2607.778,2709.182l-.258,3.152,4.977,2.639,2.462-1.979,2.819,1.494-11.427,9.146-2.564-1.361,1.173-14.586Zm-.84,10.238,3.321-2.654-2.975-1.577Z" transform="translate(-2603.787 -2707.687)"/>
        </g>
        <g id="Group_1109" data-name="Group 1109" transform="translate(44.591 209.423)">
          <path id="Path_3219" data-name="Path 3219" class="cls-2" d="M2601.718,2710.449l-2.417-1.8,2.847-3.823a7.055,7.055,0,0,1,5.771,1.519,6.853,6.853,0,0,1,2.811,4.544,7.1,7.1,0,0,1-5.969,7.94,6.809,6.809,0,0,1-5.156-1.346,7.285,7.285,0,0,1-2.894-4.531l2.594-.872a5.913,5.913,0,0,0,.684,1.863,4.483,4.483,0,0,0,1.137,1.222,3.915,3.915,0,0,0,3.007.787,4.1,4.1,0,0,0,2.774-1.753,4.177,4.177,0,0,0,.92-3.116,3.618,3.618,0,0,0-1.467-2.515,5.14,5.14,0,0,0-2.439-1.077Z" transform="translate(-2596.712 -2704.694)"/>
        </g>
        <g id="Group_1110" data-name="Group 1110" transform="translate(31.29 197.612)">
          <path id="Path_3220" data-name="Path 3220" class="cls-2" d="M2591.522,2709.75l1.886-1.892,4.736,4.724,1.952-1.961-4.258-4.247,1.806-1.81,4.26,4.247,1.967-1.974-4.884-4.872,1.871-1.88,7.008,6.992-9.486,9.51Z" transform="translate(-2591.522 -2700.085)"/>
        </g>
        <g id="Group_1111" data-name="Group 1111" transform="translate(19.182 183.994)">
          <path id="Path_3221" data-name="Path 3221" class="cls-2" d="M2588.587,2705.2l-1.789-2.406,10.779-8.021,1.791,2.407-2.934,10.16,6.752-5.03,1.791,2.41-10.778,8.018-1.676-2.25,3.006-10.451Z" transform="translate(-2586.797 -2694.77)"/>
        </g>
        <g id="Group_1112" data-name="Group 1112" transform="translate(11.089 169.999)">
          <path id="Path_3222" data-name="Path 3222" class="cls-2" d="M2594.362,2694.316a4.431,4.431,0,0,0-3.231-2.379l.856-2.626a7.251,7.251,0,0,1,5.438,9.01,7.113,7.113,0,0,1-8.813,4.6,6.892,6.892,0,0,1-4.1-3.5,7.074,7.074,0,0,1-.351-6.071l2.74.666a4.375,4.375,0,0,0,.08,3.954,4.132,4.132,0,0,0,2.33,2.044,3.839,3.839,0,0,0,3.192-.323,4.087,4.087,0,0,0,2.138-2.406A3.76,3.76,0,0,0,2594.362,2694.316Z" transform="translate(-2583.639 -2689.31)"/>
        </g>
        <g id="Group_1113" data-name="Group 1113" transform="translate(3.695 159.213)">
          <path id="Path_3223" data-name="Path 3223" class="cls-2" d="M2594.973,2685.1l1.011,2.821-4.987,1.8-6.076,7.129-1.1-3.054,3.716-4.423-5.681-1.036-1.1-3.057,9.226,1.619Z" transform="translate(-2580.754 -2685.1)"/>
        </g>
        <g id="Group_1114" data-name="Group 1114" transform="translate(3.682 131.633)">
          <path id="Path_3224" data-name="Path 3224" class="cls-2" d="M2585.485,2678.718a2.678,2.678,0,0,1-4.125-3.416,2.69,2.69,0,0,1,3.769-.352,2.688,2.688,0,0,1,.356,3.768Z" transform="translate(-2580.749 -2674.338)"/>
        </g>
      </g>
    </g>
  </g>
</svg>
