<svg xmlns="http://www.w3.org/2000/svg" viewBox="0 0 943.02 424.33"><defs><style>.cls-1{fill:#40403f;}.cls-2{fill:#ef453e;}</style></defs><title>Asset 16</title><g id="Layer_2" data-name="Layer 2"><g id="Layer_1-2" data-name="Layer 1"><path class="cls-1" d="M406.75,302.34q-4.44-1.86-4.44-5.34a7.14,7.14,0,0,1,2.16-4.86q2.16-2.34,4.32-2.34,2.4,0,4.92,2.76a29.9,29.9,0,0,1,2.76,3.6,10.84,10.84,0,0,1,.9,1.2,6.26,6.26,0,0,0,1.2,1.38,1.83,1.83,0,0,0,1.14.42q7.44,0,7.44-20v-65q0-3.84-1.56-5.4c-1-1-3.16-1.92-6.36-2.64A2.6,2.6,0,0,1,417,203.4a1.56,1.56,0,0,1,.72-1.26,2.39,2.39,0,0,1,1.44-.54q4.44,0,9.36.36c4.32.17,7.2.24,8.64.24s4.52-.07,9-.24q7-.24,9.6-.24,1.92,0,1.92,1.8a2.2,2.2,0,0,1-.54,1.62,4.13,4.13,0,0,1-1.74.9c-3.28,1-5.4,2-6.36,3s-1.44,2.76-1.44,5.16v54.72c0,2.88-.9,6.47-2.7,10.74a57.23,57.23,0,0,1-7,12.18,42,42,0,0,1-8.82,9A15.44,15.44,0,0,1,420,304.2Q411.19,304.2,406.75,302.34Z"/><path class="cls-1" d="M467.59,278.64a23.8,23.8,0,0,1-9.42-9.06,25.22,25.22,0,0,1-3.42-13,28.13,28.13,0,0,1,3.84-14.4A29.1,29.1,0,0,1,469,231.66a27.8,27.8,0,0,1,14.46-3.9,27,27,0,0,1,13.5,3.48,26.73,26.73,0,0,1,9.78,9.3,23.44,23.44,0,0,1,3.6,12.54A31.43,31.43,0,0,1,507,267.66a25,25,0,0,1-10,10.38q-6.66,3.84-16.14,3.84A27.33,27.33,0,0,1,467.59,278.64Zm21.84-5.88q2.64-4.42,2.64-16.8,0-10-2.88-16.26t-7.56-6.3a7,7,0,0,0-5.16,2,11.88,11.88,0,0,0-2.82,6.42,69.82,69.82,0,0,0-.78,11.7,44.63,44.63,0,0,0,1.32,11,24.74,24.74,0,0,0,3.66,8.46q2.34,3.24,5.22,3.24A7,7,0,0,0,489.43,272.76Z"/><path class="cls-1" d="M517.15,277.92a14.29,14.29,0,0,1-1.74-5.82,48.32,48.32,0,0,1-.3-8.82,1.29,1.29,0,0,1,.72-1.14,3.53,3.53,0,0,1,1.8-.42,2.68,2.68,0,0,1,1.74.66,4.45,4.45,0,0,1,1.14,1.38,42.59,42.59,0,0,0,5.7,9.12,8.81,8.81,0,0,0,6.9,3.24,5.74,5.74,0,0,0,4.5-1.8,6.23,6.23,0,0,0,1.62-4.32,6.34,6.34,0,0,0-2.22-4.8,25.3,25.3,0,0,0-5.82-3.84,36.37,36.37,0,0,1-10.26-7.14,14.44,14.44,0,0,1-3.9-10.5,13.89,13.89,0,0,1,5.76-11.52A22.56,22.56,0,0,1,537,227.76a32.68,32.68,0,0,1,7.32.84,18.55,18.55,0,0,1,5.16,1.8,10.5,10.5,0,0,1,1.5,4.56,49.79,49.79,0,0,1,.54,7.8,1.07,1.07,0,0,1-.66,1,3.63,3.63,0,0,1-1.74.36,3.23,3.23,0,0,1-1.8-.66,3,3,0,0,1-1.2-1.26,18,18,0,0,0-4-7.14,7.49,7.49,0,0,0-5.34-2.46,7.21,7.21,0,0,0-4.8,1.74,5.53,5.53,0,0,0-2,4.38,5.47,5.47,0,0,0,2.16,4.08,31.09,31.09,0,0,0,6,4q8.16,4.32,11.4,8.16T552.67,265c0,5.45-1.74,9.62-5.22,12.54s-8.62,4.38-15.42,4.38Q523.15,281.88,517.15,277.92Z"/><path class="cls-1" d="M557.11,280.08a1.59,1.59,0,0,1-.6-1.32q0-1.54,2.76-2.52c.24-.07.82-.28,1.74-.6a4,4,0,0,0,2-1.38,4.29,4.29,0,0,0,.66-2.58v-57a15.68,15.68,0,0,0-.9-5.88,4.74,4.74,0,0,0-3.66-2.76c-.88-.16-1.32-.79-1.32-1.92s.4-1.63,1.2-1.8q5-1,17-5.4l2.52-1a5.76,5.76,0,0,1,1.68-.36c.88,0,1.32.53,1.32,1.56l-.24,2.76-.36,3.72v29.28q0,2.78.6,3.24a57.73,57.73,0,0,1,8.22-6.06,17.83,17.83,0,0,1,9.18-2.22,14.48,14.48,0,0,1,11,4.62q4.32,4.62,4.32,12.54v26.4a4,4,0,0,0,1,3.12,10.53,10.53,0,0,0,3.24,1.68,6,6,0,0,1,1.92,1,1.91,1.91,0,0,1,.6,1.5,1.59,1.59,0,0,1-.66,1.26,3.08,3.08,0,0,1-2,.54,57.26,57.26,0,0,1-7-.36q-3.6-.24-6-.24-2.64,0-5.76.24a42.13,42.13,0,0,1-6.24.36q-3,0-3-1.92,0-1.68,2.4-2.4a7.61,7.61,0,0,0,3-1.62A4.52,4.52,0,0,0,597,271.2V247.68a10.11,10.11,0,0,0-2-6.36,6.08,6.08,0,0,0-4.92-2.64,12.82,12.82,0,0,0-7.68,2.64,2.31,2.31,0,0,0-1,1.2,7.28,7.28,0,0,0-.24,2.16v26.76a4.06,4.06,0,0,0,1,3.06,8.67,8.67,0,0,0,2.88,1.62q2.4,1,2.4,2.52a1.87,1.87,0,0,1-.54,1.38,2,2,0,0,1-1.5.54,68.77,68.77,0,0,1-7.08-.36Q573.91,280,572,280t-6.12.24a63.17,63.17,0,0,1-7,.36A2.84,2.84,0,0,1,557.11,280.08Z"/><path class="cls-1" d="M673.69,276.9a37.75,37.75,0,0,1-20.82-34.5,40.52,40.52,0,0,1,5.58-20.58,41.42,41.42,0,0,1,16-15.48q10.38-5.82,24.06-5.82a74.26,74.26,0,0,1,12.42,1.32,62.32,62.32,0,0,1,11.7,3,4.1,4.1,0,0,1,2.64,3.24,111.6,111.6,0,0,1,1.44,14.52,2.62,2.62,0,0,1-.54,1.8,1.88,1.88,0,0,1-1.5.6,3,3,0,0,1-2-.6,5.53,5.53,0,0,1-1.32-1.8c-2.09-4.48-4.16-7.75-6.24-9.84a20.38,20.38,0,0,0-6-4.14,20.63,20.63,0,0,0-8.4-1.5,22.82,22.82,0,0,0-14,4.38,26.68,26.68,0,0,0-8.82,11.64,41.49,41.49,0,0,0-2.94,15.78q0,16.92,5.46,26.52T697,275a12.12,12.12,0,0,0,6.84-2.64,5.34,5.34,0,0,0,1.86-2.82,17.11,17.11,0,0,0,.78-4.62c.16-2.71.24-6.24.24-10.56a4.34,4.34,0,0,0-3.12-4.32,44.5,44.5,0,0,0-6.84-2.16,6.15,6.15,0,0,1-2.1-1.08,2.1,2.1,0,0,1-.9-1.68,1.49,1.49,0,0,1,.78-1.32,3.57,3.57,0,0,1,1.86-.48q4.56,0,10,.36c4.64.17,7.68.24,9.12.24s4-.07,7.56-.24q5.52-.24,8.16-.24,1.92,0,1.92,1.8a2.42,2.42,0,0,1-.54,1.68,3,3,0,0,1-1.74.84,12.58,12.58,0,0,0-4.8,2.16,6.46,6.46,0,0,0-1.8,3.72,44.71,44.71,0,0,0-.84,9v4.08a2.16,2.16,0,0,0,.78,1.5l.9.9a3.67,3.67,0,0,1,1.2,2.64,2.76,2.76,0,0,1-.6,1.74,2.53,2.53,0,0,1-1.92.9,16.08,16.08,0,0,0-3.36,1.32,84,84,0,0,1-11.4,4.32,49.05,49.05,0,0,1-14,1.8A45.79,45.79,0,0,1,673.69,276.9Z"/><path class="cls-1" d="M736,280a1.56,1.56,0,0,1-.72-1.26c0-1.12.91-2,2.76-2.52a9.16,9.16,0,0,0,3.54-1.74,3.85,3.85,0,0,0,.9-2.82v-28a9.42,9.42,0,0,0-.66-3.9,4.08,4.08,0,0,0-2.58-2,2.52,2.52,0,0,1-1.26-.72,2.28,2.28,0,0,1-.42-1.56,1.94,1.94,0,0,1,1.56-2.16c2.88-.64,5.91-1.48,9.12-2.52a73.38,73.38,0,0,0,8.16-3.12,8.45,8.45,0,0,1,3-1.32c.79,0,1.2.48,1.2,1.44l-.12,3.6-.24,6q0,1.2.48,1.2a39.65,39.65,0,0,1,7.32-7.68,13.21,13.21,0,0,1,8.28-3.24c5.35,0,8,2,8,6a11.46,11.46,0,0,1-2.4,6.54q-2.41,3.42-5,3.42a6.41,6.41,0,0,1-2.4-.54,24.42,24.42,0,0,1-2.64-1.26,13.4,13.4,0,0,0-4.56-1.68,6.49,6.49,0,0,0-5.46,2.58c-1.32,1.73-2,4.74-2,9.06v18.48a4.63,4.63,0,0,0,1.38,3.72,13.92,13.92,0,0,0,4.86,2.28c1.75.48,2.64,1.28,2.64,2.4a1.73,1.73,0,0,1-.54,1.26,1.88,1.88,0,0,1-1.38.54q-4,0-8.16-.36-5.3-.24-7.2-.24t-6.48.24c-2.4.24-4.85.36-7.32.36A2.7,2.7,0,0,1,736,280Z"/><path class="cls-1" d="M790.45,278.58a10.33,10.33,0,0,1-3.66-8,10,10,0,0,1,2.58-7,23.42,23.42,0,0,1,8-5.28l10.32-4.56a8.1,8.1,0,0,0,3-1.92,6.11,6.11,0,0,0,.59-3.24l.13-6.6c.15-4.8-1.44-7.2-4.8-7.2a7.83,7.83,0,0,0-3,.66,6.26,6.26,0,0,0-2.29,1.5,3.56,3.56,0,0,0-.59,2.28,14,14,0,0,0,.12,1.86c.07.68.12,1.31.12,1.86,0,.8-1.41,1.82-4.2,3.06a18.1,18.1,0,0,1-7.08,1.86,2,2,0,0,1-1.62-.78,2.91,2.91,0,0,1-.66-2,6.17,6.17,0,0,1,1.32-3.72,25,25,0,0,1,4.43-4.32A49.42,49.42,0,0,1,804,230.58q6-2.7,10.13-2.7c4.57,0,8.18,1.46,10.87,4.38s4,6.83,3.9,11.7l-.61,23.28a9.2,9.2,0,0,0,.91,4.74q1,2,2.58,2a5.52,5.52,0,0,0,3.84-1.56,1,1,0,0,1,.72-.36,1.42,1.42,0,0,1,1,.42,1.45,1.45,0,0,1,.42,1c0,1-.81,2.24-2.4,3.84A14.4,14.4,0,0,1,825,281.88a12.17,12.17,0,0,1-6.48-1.68,17.05,17.05,0,0,1-5.17-5.28h-.24a29.61,29.61,0,0,1-7.07,5.4,14.63,14.63,0,0,1-6.6,1.56A12.85,12.85,0,0,1,790.45,278.58ZM810,272a4.54,4.54,0,0,0,.72-2.76L811,260c0-1.12-.41-1.68-1.2-1.68a2.75,2.75,0,0,0-1.2.36A14.15,14.15,0,0,0,804,262.2c-.84,1.13-1.26,3-1.26,5.52,0,2.09.39,3.59,1.2,4.5a3.66,3.66,0,0,0,2.88,1.38A3.78,3.78,0,0,0,810,272Z"/><path class="cls-1" d="M849.72,278.4a24,24,0,0,1-8.22-9.48,29.36,29.36,0,0,1-3-13.32,27.8,27.8,0,0,1,3.6-13.92,27.19,27.19,0,0,1,9.78-10.08,25.79,25.79,0,0,1,13.5-3.72,19.51,19.51,0,0,1,9.3,2.28,18.24,18.24,0,0,1,6.78,6.12A15.22,15.22,0,0,1,884,244.8a5.67,5.67,0,0,1-.9,3.54,3.35,3.35,0,0,1-2.82,1.14H856.5a3,3,0,0,0-2.46,1,5.24,5.24,0,0,0-.78,3.24,15.43,15.43,0,0,0,4.2,11,14.2,14.2,0,0,0,10.8,4.44,15.1,15.1,0,0,0,6.12-1.26,34.66,34.66,0,0,0,6.24-3.66,3.29,3.29,0,0,1,1.68-.84c.88,0,1.32.53,1.32,1.56a11.43,11.43,0,0,1-.72,3.24q-1.8,5.4-7.62,9.54a23.49,23.49,0,0,1-14,4.14A20.43,20.43,0,0,1,849.72,278.4Zm13.14-34.2q2.88,0,4.26-.12a10.22,10.22,0,0,0,2.46-.48c.32-.07.62-.48.9-1.2a6.53,6.53,0,0,0,.42-2.4,6.78,6.78,0,0,0-7.08-7.08,8.83,8.83,0,0,0-6.48,3,8.34,8.34,0,0,0-2.64,6.48,1.66,1.66,0,0,0,1.8,1.8Z"/><path class="cls-1" d="M888.72,280a1.53,1.53,0,0,1-.78-1.26c0-1,.72-1.84,2.16-2.4a13,13,0,0,0,4.2-1.86,3.75,3.75,0,0,0,.84-2.82v-34.2c-2.48,0-4.56-.07-6.24-.24q-.72-.11-1.2-1.44a7.09,7.09,0,0,1-.48-2.4c0-.55.4-1,1.2-1.2,1.52-.55,3.76-1.48,6.72-2.76q.84-11.88,5.82-19.5a30.24,30.24,0,0,1,12-11,31.7,31.7,0,0,1,14-3.42q8.52,0,12.3,2.34c2.52,1.56,3.78,4.07,3.78,7.5a7.19,7.19,0,0,1-1.32,4.56,4.3,4.3,0,0,1-3.6,1.68c-1.2,0-2.68-1.15-4.44-3.48a36.67,36.67,0,0,0-5.58-5,10.47,10.47,0,0,0-6.18-1.92,7.62,7.62,0,0,0-7,4q-2.34,4-2.34,12.78v9.72q0,1.8,2,1.8h13.2a1.91,1.91,0,0,1,1.5.6,2.11,2.11,0,0,1,.54,1.44,10.14,10.14,0,0,1-.3,2.34,7.83,7.83,0,0,1-.78,2.1c-.4.65-.72,1-1,1H917.34a7.66,7.66,0,0,0-3.78.66,2.57,2.57,0,0,0-1,2.34v29.4a8.75,8.75,0,0,0,.54,3.48,4.23,4.23,0,0,0,2.16,2,23.1,23.1,0,0,0,5.1,1.5,3.44,3.44,0,0,1,1.74.78,2.1,2.1,0,0,1-.06,2.88,1.77,1.77,0,0,1-1.32.66q-4.08,0-8.76-.36-6-.24-7.8-.24t-6.48.24q-3.6.36-7.32.36A2.81,2.81,0,0,1,888.72,280Z"/><path class="cls-2" d="M456.54,387.63h3.95l-5.75,17h-3.95l-3.56-12.24-3.61,12.24h-3.93l-5.72-17h4.12l3.68,12.95,3.67-12.95h3.75l3.71,12.95Z"/><path class="cls-2" d="M491.13,387.63h3.95l-5.74,17h-4l-3.56-12.24-3.61,12.24h-3.93l-5.72-17h4.12l3.69,12.95L480,387.63h3.75l3.71,12.95Z"/><path class="cls-2" d="M525.72,387.63h3.95l-5.74,17H520l-3.57-12.24L512.8,404.6h-3.93l-5.72-17h4.12L511,400.58l3.66-12.95h3.76l3.71,12.95Z"/><path class="cls-2" d="M541.32,401.5a1.86,1.86,0,0,1,.52,1.38,1.9,1.9,0,0,1-.52,1.39,1.9,1.9,0,0,1-2.68,0,1.93,1.93,0,0,1-.53-1.38,1.87,1.87,0,0,1,.53-1.38,1.93,1.93,0,0,1,2.68,0Z"/><path class="cls-2" d="M565,389.17a5.47,5.47,0,0,1,1.77,4.35,5.93,5.93,0,0,1-1.78,4.6,7.14,7.14,0,0,1-5,1.63H556.6v4.85h-3.83v-17H560A7.44,7.44,0,0,1,565,389.17Zm-2.73,6.64a2.67,2.67,0,0,0,.86-2.17,2.59,2.59,0,0,0-.86-2.12,3.82,3.82,0,0,0-2.48-.71H556.6v5.74h3.18A3.66,3.66,0,0,0,562.26,395.81Z"/><path class="cls-2" d="M577.28,387.63h3.83v17h-3.83Z"/><path class="cls-2" d="M605.47,388.5a8.67,8.67,0,0,1,0,15.22,9.9,9.9,0,0,1-9.26,0,8.67,8.67,0,0,1,0-15.22,10.07,10.07,0,0,1,9.27,0Zm-7.2,2.93a5.18,5.18,0,0,0-1.91,1.95,5.48,5.48,0,0,0,1.93,7.41,5,5,0,0,0,5.18,0,5.14,5.14,0,0,0,1.87-2,5.59,5.59,0,0,0,.69-2.75,5.46,5.46,0,0,0-.69-2.71,5.08,5.08,0,0,0-1.87-1.95,4.83,4.83,0,0,0-2.58-.72A5,5,0,0,0,598.27,391.43Z"/><path class="cls-2" d="M632.28,387.63h3.64v17h-3.49l-8.22-10.91V404.6h-3.66v-17H624l8.24,11Z"/><path class="cls-2" d="M647.72,387.63h12.93v3.18h-9.09v3.68h8.16v3.18h-8.16v3.76h9.35v3.17H647.72Z"/><path class="cls-2" d="M672,387.63h12.92v3.18h-9.09v3.68H684v3.18h-8.17v3.76h9.36v3.17H672Z"/><path class="cls-2" d="M706.68,404.6,704,399.75h-3.9v4.85h-3.83v-17h7.37a7.74,7.74,0,0,1,5.13,1.54,5.37,5.37,0,0,1,1.82,4.35,6.58,6.58,0,0,1-.81,3.36,5.19,5.19,0,0,1-2.36,2.12l3.61,5.6Zm-6.59-8.05h3.54a3.65,3.65,0,0,0,2.46-.74,2.7,2.7,0,0,0,.86-2.17,2.62,2.62,0,0,0-.86-2.12,3.81,3.81,0,0,0-2.46-.71h-3.54Z"/><path class="cls-2" d="M721.88,387.63h4.27l5.28,10.43,5.24-10.43h4.24v17h-3.44V393.13l-4.83,9.75h-2.47l-4.85-9.75V404.6h-3.44Z"/><path class="cls-2" d="M765.27,404.6l-1.33-3.3h-7.86l-1.33,3.3h-4l7.37-17h4l7.25,17Zm-7.93-6.37h5.36l-2.67-6.6Z"/><path class="cls-2" d="M791,388.71a7.77,7.77,0,0,1,3.16,3,9.06,9.06,0,0,1,0,8.8,8,8,0,0,1-3.22,3,10,10,0,0,1-4.7,1.08h-7v-17h7.2A9.73,9.73,0,0,1,791,388.71Zm-2,12a4.68,4.68,0,0,0,1.76-1.85,5.74,5.74,0,0,0,.63-2.72,5.64,5.64,0,0,0-.67-2.74,4.84,4.84,0,0,0-1.82-1.88,5.16,5.16,0,0,0-2.6-.66H783v10.52h3.46A4.94,4.94,0,0,0,789,400.71Z"/><path class="cls-2" d="M805.92,387.63h12.92v3.18h-9.09v3.68h8.17v3.18h-8.17v3.76h9.36v3.17H805.92Z"/><path class="cls-2" d="M832.5,401.5a1.86,1.86,0,0,1,.52,1.38,1.9,1.9,0,0,1-.52,1.39,1.75,1.75,0,0,1-1.34.55,1.79,1.79,0,0,1-1.34-.56,1.93,1.93,0,0,1-.53-1.38,1.87,1.87,0,0,1,.53-1.38,1.81,1.81,0,0,1,1.34-.54A1.78,1.78,0,0,1,832.5,401.5Z"/><path class="cls-2" d="M854.2,391.3a5.29,5.29,0,0,0-2.37-.59,5.08,5.08,0,0,0-4.48,2.62,5.68,5.68,0,0,0,0,5.39,5.05,5.05,0,0,0,1.87,1.94,4.93,4.93,0,0,0,2.61.72,5.54,5.54,0,0,0,2.32-.55,7.24,7.24,0,0,0,2.1-1.47l2.25,2.45a10.13,10.13,0,0,1-3.19,2.23,8.86,8.86,0,0,1-3.67.83,9.13,9.13,0,0,1-4.53-1.15,8.4,8.4,0,0,1-3.2-3.17,8.73,8.73,0,0,1-1.17-4.48,8.48,8.48,0,0,1,4.45-7.57,9.5,9.5,0,0,1,4.6-1.13,9.59,9.59,0,0,1,6.69,2.83l-2.23,2.74A6.72,6.72,0,0,0,854.2,391.3Z"/><path class="cls-2" d="M881.07,388.5a8.68,8.68,0,0,1,0,15.22,9.9,9.9,0,0,1-9.26,0,8.66,8.66,0,0,1,0-15.22,10.07,10.07,0,0,1,9.27,0Zm-7.2,2.93a5,5,0,0,0-1.91,1.95,5.55,5.55,0,0,0,0,5.45,5.28,5.28,0,0,0,1.91,2,5,5,0,0,0,5.19,0,5.21,5.21,0,0,0,1.87-2,5.59,5.59,0,0,0,.69-2.75,5.46,5.46,0,0,0-.69-2.71,5.16,5.16,0,0,0-1.87-1.95,4.83,4.83,0,0,0-2.58-.72A5,5,0,0,0,873.87,391.43Z"/><path class="cls-2" d="M896.15,387.63h4.26l5.29,10.43,5.23-10.43h4.25v17h-3.45V393.13l-4.82,9.75h-2.47l-4.85-9.75V404.6h-3.44Z"/><path class="cls-1" d="M457.63,318a15.93,15.93,0,0,1,5.34,3.58l-2.24,2.38a13.17,13.17,0,0,0-4.44-3.14,13.43,13.43,0,0,0-5.4-1.09,15.37,15.37,0,0,0-7.84,2.11,16.22,16.22,0,0,0-5.82,5.7,14.8,14.8,0,0,0-2.17,7.82,12.78,12.78,0,0,0,1.68,6.48,12.28,12.28,0,0,0,4.65,4.62,13,13,0,0,0,6.63,1.71,15.25,15.25,0,0,0,5.64-1.1,17.16,17.16,0,0,0,5-3l1.85,2.19a22,22,0,0,1-6.16,3.75,18,18,0,0,1-6.79,1.36,16,16,0,0,1-8.16-2.09,15.21,15.21,0,0,1-5.7-5.7,15.73,15.73,0,0,1-2.07-8,17.5,17.5,0,0,1,2.68-9.39,19.83,19.83,0,0,1,7.16-6.9,19.08,19.08,0,0,1,9.59-2.55A16.82,16.82,0,0,1,457.63,318Z"/><path class="cls-1" d="M495.94,320.05H476.46L474,332.17h17.39l-.63,3.07H473.39L470.86,348h20.06l-.58,3.07H466.91l6.82-34.09h22.79Z"/><path class="cls-1" d="M526.79,318.88a15.09,15.09,0,0,1,5.82,6,15.37,15.37,0,0,1,1.8,8.36,17.47,17.47,0,0,1-2.94,9.08,20.07,20.07,0,0,1-7.16,6.6,19.23,19.23,0,0,1-9.43,2.43,16.32,16.32,0,0,1-8.25-2.09,15.26,15.26,0,0,1-5.77-5.7,15.56,15.56,0,0,1-2.1-8,17.68,17.68,0,0,1,2.68-9.44,19.64,19.64,0,0,1,7.18-6.87,19.42,19.42,0,0,1,9.67-2.53A16.64,16.64,0,0,1,526.79,318.88Zm-16.53,3a16.69,16.69,0,0,0-5.87,5.7,14.49,14.49,0,0,0-2.22,7.77,12.86,12.86,0,0,0,1.71,6.53,12.26,12.26,0,0,0,4.7,4.67,13,13,0,0,0,6.6,1.71,15.08,15.08,0,0,0,7.74-2.15,16.47,16.47,0,0,0,5.84-5.74,14.68,14.68,0,0,0,2.2-7.8,12.54,12.54,0,0,0-1.71-6.47,12.67,12.67,0,0,0-4.65-4.63,12.83,12.83,0,0,0-6.55-1.71A15.28,15.28,0,0,0,510.26,321.87Z"/><path class="cls-1" d="M571.82,334.12l-.44,2.44h-9l-1.76,8.86h-2.33l1.75-8.86h-8.86l.43-2.44h8.92l1.8-8.91h2.34l-1.81,8.91Z"/><path class="cls-1" d="M616.16,335.49a6.68,6.68,0,0,1,1.68,4.67,9.67,9.67,0,0,1-1.75,5.77,11,11,0,0,1-5,3.78,20.36,20.36,0,0,1-7.6,1.31H589.06l6.82-34.09H610.1a11.39,11.39,0,0,1,6.94,1.85,6.11,6.11,0,0,1,2.46,5.16,8.84,8.84,0,0,1-2.19,6,10,10,0,0,1-5.9,3.19A7.77,7.77,0,0,1,616.16,335.49Zm-4.6,10.44a6.47,6.47,0,0,0,2.82-5.57,4.49,4.49,0,0,0-2.07-4A10.54,10.54,0,0,0,606.4,335H595.58L593,348h10.72C607.06,348,609.68,347.28,611.56,345.93Zm2.68-24.62a8.09,8.09,0,0,0-4.87-1.26H598.6l-2.38,11.88h10.71a10.42,10.42,0,0,0,6.58-1.9,6.21,6.21,0,0,0,2.43-5.16A4.2,4.2,0,0,0,614.24,321.31Z"/><path class="cls-1" d="M635.28,326.89a12.09,12.09,0,0,1,5.89-1.53l-.39,3.16a10.66,10.66,0,0,0-7,2.36,12.76,12.76,0,0,0-4.21,6.51L626.85,351h-3.26l5.06-25.52H632l-1.17,5.7A13,13,0,0,1,635.28,326.89Z"/><path class="cls-1" d="M646.65,349.78a10.06,10.06,0,0,1-3.9-4,12.29,12.29,0,0,1-1.39-5.89,15,15,0,0,1,1.85-7.38,14,14,0,0,1,5-5.26,13.26,13.26,0,0,1,7-1.92,10.87,10.87,0,0,1,6.51,1.9,9,9,0,0,1,3.53,5.26l1.41-7H670L664.89,351h-3.27l1-4.92a12.86,12.86,0,0,1-4.53,3.78,12.72,12.72,0,0,1-5.75,1.34A11.28,11.28,0,0,1,646.65,349.78Zm12.15-2.87a11,11,0,0,0,3.92-4.17,11.76,11.76,0,0,0,1.44-5.74,8.69,8.69,0,0,0-2.39-6.34,8.35,8.35,0,0,0-6.23-2.43,10.23,10.23,0,0,0-5.46,1.53,11.21,11.21,0,0,0-3.94,4.17,11.56,11.56,0,0,0-1.46,5.74,8.63,8.63,0,0,0,2.41,6.34,8.48,8.48,0,0,0,6.3,2.43A10.13,10.13,0,0,0,658.8,346.91Z"/><path class="cls-1" d="M698.57,327.38a7.28,7.28,0,0,1,2.36,5.77,13.62,13.62,0,0,1-.29,2.68l-3,15.19H694.3l3-14.85a10.41,10.41,0,0,0,.2-2.05,5.54,5.54,0,0,0-1.68-4.31,6.88,6.88,0,0,0-4.8-1.53,10.35,10.35,0,0,0-6.82,2.51,11.65,11.65,0,0,0-3.75,6.69L677.75,351h-3.27l5-25.52h3.31l-1.07,5.36a11.62,11.62,0,0,1,4.31-4.09,12.62,12.62,0,0,1,5.92-1.46A9.7,9.7,0,0,1,698.57,327.38Z"/><path class="cls-1" d="M711.52,349.78a10.06,10.06,0,0,1-3.9-4,12.28,12.28,0,0,1-1.38-5.89,14.89,14.89,0,0,1,1.85-7.38,13.92,13.92,0,0,1,5-5.26,13.27,13.27,0,0,1,7-1.92,10.86,10.86,0,0,1,6.5,1.9,9,9,0,0,1,3.53,5.26l3.55-17.59H737L729.76,351H726.5l1-4.92a12.77,12.77,0,0,1-10.28,5.12A11.28,11.28,0,0,1,711.52,349.78Zm12.15-2.87a11,11,0,0,0,3.92-4.17A11.76,11.76,0,0,0,729,337a8.69,8.69,0,0,0-2.39-6.34,8.35,8.35,0,0,0-6.23-2.43,10.23,10.23,0,0,0-5.46,1.53,11.21,11.21,0,0,0-3.94,4.17,11.56,11.56,0,0,0-1.46,5.74A8.63,8.63,0,0,0,712,346a8.5,8.5,0,0,0,6.31,2.43A10.1,10.1,0,0,0,723.67,346.91Z"/><path class="cls-1" d="M779,351,776.42,342H757.47L752,351h-3.56l21-34.09h3.5L782.55,351Zm-19.68-12.08h16.32l-5.16-18.45Z"/><path class="cls-1" d="M791.39,349.78a10,10,0,0,1-3.89-4,12.17,12.17,0,0,1-1.39-5.89,14.89,14.89,0,0,1,1.85-7.38,13.87,13.87,0,0,1,5-5.26,13.24,13.24,0,0,1,7-1.92,10.86,10.86,0,0,1,6.5,1.9,9,9,0,0,1,3.53,5.26l3.56-17.59h3.26L809.63,351h-3.26l1-4.92a12.77,12.77,0,0,1-10.27,5.12A11.29,11.29,0,0,1,791.39,349.78Zm12.15-2.87a10.92,10.92,0,0,0,3.92-4.17A11.76,11.76,0,0,0,808.9,337a8.69,8.69,0,0,0-2.39-6.34,8.33,8.33,0,0,0-6.23-2.43,10.17,10.17,0,0,0-5.45,1.53,11.15,11.15,0,0,0-4,4.17,11.67,11.67,0,0,0-1.46,5.74,8.63,8.63,0,0,0,2.41,6.34,8.5,8.5,0,0,0,6.31,2.43A10.08,10.08,0,0,0,803.54,346.91Z"/><path class="cls-1" d="M843.77,325.5,828.53,351h-3.41L820,325.5h3.45l3.95,22.26,12.9-22.26Z"/><path class="cls-1" d="M851.66,325.5,846.6,351h-3.27l5.07-25.52Zm1.58-9.13a2,2,0,0,1,.52,1.39,2.57,2.57,0,0,1-.83,1.92,2.69,2.69,0,0,1-1.95.81,1.74,1.74,0,0,1-1.31-.56,1.94,1.94,0,0,1-.54-1.39,2.61,2.61,0,0,1,.83-1.93,2.72,2.72,0,0,1,1.95-.8A1.72,1.72,0,0,1,853.24,316.37Z"/><path class="cls-1" d="M858,350.07a11.12,11.12,0,0,1-4.58-3.43l1.66-2.19a11,11,0,0,0,4,3,12.14,12.14,0,0,0,5.17,1.15,7,7,0,0,0,4.26-1.24,3.86,3.86,0,0,0,1.68-3.24,3.14,3.14,0,0,0-1.37-2.66,20.54,20.54,0,0,0-4.09-2.12,34,34,0,0,1-3.63-1.7,7.72,7.72,0,0,1-2.36-2.05,5,5,0,0,1-1-3.16,6.38,6.38,0,0,1,2.46-5.24,9.78,9.78,0,0,1,6.3-2,15.07,15.07,0,0,1,5.09.85,12.75,12.75,0,0,1,4.07,2.27l-1.65,2.33a12.84,12.84,0,0,0-3.58-1.94,11.71,11.71,0,0,0-4-.73,6.45,6.45,0,0,0-3.92,1.12,3.47,3.47,0,0,0-1.54,3,3,3,0,0,0,1.32,2.55,19.45,19.45,0,0,0,4.09,2.07,37.59,37.59,0,0,1,3.72,1.71,7.66,7.66,0,0,1,2.44,2.09,5.3,5.3,0,0,1,1,3.27,6.71,6.71,0,0,1-2.63,5.5,10.37,10.37,0,0,1-6.67,2.09A15.5,15.5,0,0,1,858,350.07Z"/><path class="cls-1" d="M899,326.84a10.4,10.4,0,0,1,4.12,4.12,12.24,12.24,0,0,1,1.46,6,14.11,14.11,0,0,1-1.87,7.25,13.38,13.38,0,0,1-5.14,5,14.61,14.61,0,0,1-7.26,1.83,12.11,12.11,0,0,1-6.09-1.49,10.56,10.56,0,0,1-4.09-4.11,12.27,12.27,0,0,1-1.46-6,14.18,14.18,0,0,1,1.88-7.26,13.51,13.51,0,0,1,5.11-5,14.44,14.44,0,0,1,7.23-1.82A12.28,12.28,0,0,1,899,326.84Zm-11.81,2.83a10.2,10.2,0,0,0-3.82,4,11.66,11.66,0,0,0-1.39,5.69,9,9,0,0,0,2.37,6.48,8.2,8.2,0,0,0,6.25,2.48,10.6,10.6,0,0,0,5.41-1.41,10,10,0,0,0,3.82-3.94,11.73,11.73,0,0,0,1.39-5.75,9,9,0,0,0-2.36-6.48,8.26,8.26,0,0,0-6.26-2.48A10.45,10.45,0,0,0,887.21,329.67Z"/><path class="cls-1" d="M920.67,326.89a12.16,12.16,0,0,1,5.9-1.53l-.39,3.16a10.63,10.63,0,0,0-7,2.36,12.83,12.83,0,0,0-4.22,6.51L912.25,351H909l5.07-25.52h3.31l-1.17,5.7A13.12,13.12,0,0,1,920.67,326.89Z"/><path class="cls-2" d="M141.46,316.79a2.31,2.31,0,0,1-1.48-1.56c-.47-1.94.31-3.47,2.35-4.57,4.25-2,7-3.91,8.17-5.73s1.38-4.43.54-7.87L132,219q-1.34-5.51-4-7.33T118.91,210c-2.55,0-4-.9-4.49-2.74a2.51,2.51,0,0,1,.46-2.2,4,4,0,0,1,2.31-1.38c4.12-1,8.47-1.88,13-2.63q8.68-1.74,11.95-2.54a95.49,95.49,0,0,0,9.29-3,115,115,0,0,1,15.05-4.76q21.17-5.16,35.74.86t18.39,21.67a44.5,44.5,0,0,1,.14,21.54,36.77,36.77,0,0,1-10.71,18.1q-8.15,7.71-21.9,11.07a15.09,15.09,0,0,1-7.3.32q-2.82-.76-3.33-2.84a2.38,2.38,0,0,1,.64-2.25,3.88,3.88,0,0,1,2-1.29,16.63,16.63,0,0,1,3.46-.39,17.13,17.13,0,0,0,3.63-.43q6.36-1.55,7.89-10.21t-1.64-21.73q-3.9-16-10.15-22.21a14.84,14.84,0,0,0-14.85-4.13q-9.63,2.34-7.41,11.46l19.17,79.49q1.26,5.16,4.6,6.53t11.49,1.21a4.58,4.58,0,0,1,2.8.6,3.57,3.57,0,0,1,1.35,2.21c.42,1.72-.29,2.81-2.12,3.25l-15,3.3-14,3.05q-3.11.75-12.3,3.36-6.76,2.19-13.29,3.78A3.49,3.49,0,0,1,141.46,316.79Z"/><path class="cls-2" d="M175.41,378.3c-58.27,0-111.32-39.7-125.7-98.77a129.53,129.53,0,0,1,95.09-156.3c69.3-16.87,139.42,25.79,156.3,95.09h0a129.4,129.4,0,0,1-125.69,160Zm0-252.32a122.94,122.94,0,1,0,119.45,93.86A122.78,122.78,0,0,0,175.4,126Z"/><path class="cls-2" d="M175.4,424.33c-79,0-150.9-53.83-170.4-133.91-22.88-94,35-189,128.91-211.9s189,35,211.9,128.91A175.47,175.47,0,0,1,175.4,424.33ZM175.4,80a169.2,169.2,0,0,0-40,4.81c-90.51,22-146.21,113.61-124.18,204.12S124.87,435.11,215.37,413.07A168.93,168.93,0,0,0,339.55,209C320.77,131.82,251.49,80,175.4,80Z"/><path class="cls-2" d="M327.31,273.67a4,4,0,0,1-3.35.87,4.33,4.33,0,0,1-3.16-1.74,5.24,5.24,0,0,1-.7-3.81l.37-2.74-3.68-.49.32-2.4,12.5,1.68-.68,5.13A5.44,5.44,0,0,1,327.31,273.67Zm-4.77-2.37a2.11,2.11,0,0,0,1.65,1,2.08,2.08,0,0,0,1.81-.49,3.35,3.35,0,0,0,.86-2l.34-2.6-4.62-.63-.35,2.61A3.24,3.24,0,0,0,322.54,271.3Z"/><path class="cls-2" d="M326.21,284.69l-.57,2.34-12.25-3,.57-2.34Z"/><path class="cls-2" d="M318.84,306a6.31,6.31,0,0,1-3,1.46,6.24,6.24,0,0,1-3.38-.31,6.37,6.37,0,0,1-4.13-5.06,6.85,6.85,0,0,1,.37-3.51,7,7,0,0,1,2-2.9,6.5,6.5,0,0,1,3.05-1.45,6.26,6.26,0,0,1,3.39.32,6.17,6.17,0,0,1,2.77,2,6.25,6.25,0,0,1,1.33,3.08,6.8,6.8,0,0,1-.39,3.49A7.06,7.06,0,0,1,318.84,306Zm.16-5.83a4.33,4.33,0,0,0-7-2.6,4.25,4.25,0,0,0-1.48,4,4.29,4.29,0,0,0,2.78,3.28,4.28,4.28,0,0,0,2.23.22,4.34,4.34,0,0,0,2-.9,4.33,4.33,0,0,0,1.48-4Z"/><path class="cls-2" d="M309.8,326.24l-1.12,2.06-11.06-6.06,1.09-2,10.74-1.52-7.62-4.17,1.14-2.07L314,318.53l-1.1,2-10.76,1.53Z"/><path class="cls-2" d="M302.57,337.69l-5.51,7.43-1.7-1.26,4.07-5.48-2.5-1.86-3.65,4.92-1.7-1.26,3.65-4.92-2.54-1.89-4.2,5.66-1.69-1.26,5.64-7.59Z"/><path class="cls-2" d="M290.17,353.19l-6.41,6.66-1.52-1.47,4.74-4.91-2.24-2.16-4.26,4.41L279,354.25l4.25-4.41-2.29-2.2L276,352.71l-1.51-1.46,6.56-6.81Z"/><path class="cls-2" d="M261.85,362l4,1.59a3.54,3.54,0,0,1,.35-.29l2.24-1.76-2.29-2.92,1.89-1.49,7.79,9.92-4.13,3.25a5.67,5.67,0,0,1-3.68,1.44,3.94,3.94,0,0,1-3-1.7,4.78,4.78,0,0,1-1.06-2.37,4,4,0,0,1,.5-2.39l-4.76-1.57Zm7.92,1.21L267.53,365a3.23,3.23,0,0,0-1.28,1.76,2.17,2.17,0,0,0,.53,1.83,2.08,2.08,0,0,0,1.64.92,3.31,3.31,0,0,0,2-.84l2.24-1.76Z"/><path class="cls-2" d="M240.38,388.78a2.7,2.7,0,0,1-2.06-1.55,2.85,2.85,0,0,1-.28-1.86,2.78,2.78,0,0,1,1-1.61,3.25,3.25,0,0,1-2.25-.1,3.13,3.13,0,0,1-1.58-1.57,3,3,0,0,1,0-2.84,5.7,5.7,0,0,1,2.65-2.35l5.16-2.57,5.62,11.3-5,2.49A5.31,5.31,0,0,1,240.38,388.78Zm-2.76-8.95a1.41,1.41,0,0,0,0,1.42,1.39,1.39,0,0,0,1.12.8,3.1,3.1,0,0,0,1.8-.42l2.75-1.37-1.49-3L239,378.64A3,3,0,0,0,237.62,379.83Zm2.68,4.65a1.36,1.36,0,0,0,0,1.27,1.29,1.29,0,0,0,1,.76,2.32,2.32,0,0,0,1.48-.32l2.75-1.36-1.37-2.74-2.74,1.36A2.3,2.3,0,0,0,240.3,384.48Z"/><path class="cls-2" d="M218.2,384.77l3.26,2.84a3.87,3.87,0,0,1,.42-.16l2.7-.91L223.4,383l2.28-.77,4,11.95-5,1.68a5.71,5.71,0,0,1-3.95.14,4,4,0,0,1-2.29-2.62,4.78,4.78,0,0,1-.2-2.59,3.85,3.85,0,0,1,1.27-2.08l-4-3.07Zm7.06,3.78-2.69.91a3.21,3.21,0,0,0-1.8,1.23,2.2,2.2,0,0,0-.12,1.91,2.09,2.09,0,0,0,1.24,1.41,3.26,3.26,0,0,0,2.17-.13l2.69-.91Z"/><path class="cls-2" d="M198,389.57l1.6,2.41,6.05-1.14.6-2.84,2.46-.46L205.6,401l-2.46.47-7.71-11.37Zm7.19,3.46-4.35.83,3.14,4.79Z"/><path class="cls-2" d="M179.4,403.89l-2.34.11-.58-12.6,2.29-.11,6.88,8.38-.4-8.68,2.36-.11.58,12.6-2.29.11-6.9-8.4Z"/><path class="cls-2" d="M157.44,402.09a5.93,5.93,0,0,1-2.12-2.46,6.38,6.38,0,0,1-.53-3.33,6.28,6.28,0,0,1,1.17-3.16,6,6,0,0,1,2.57-2,7,7,0,0,1,3.5-.48l5.13.49L166,403.71l-5.21-.5A7.13,7.13,0,0,1,157.44,402.09Zm2.12-9a3.71,3.71,0,0,0-1.58,1.33,4.4,4.4,0,0,0-.73,2.1,4.3,4.3,0,0,0,.33,2.21,3.81,3.81,0,0,0,1.34,1.63,4.22,4.22,0,0,0,2.05.73l2.79.27.8-8.32-2.87-.27A4.1,4.1,0,0,0,159.56,393.09Z"/><path class="cls-2" d="M127.66,394a6.16,6.16,0,0,0,1.61.85,2.52,2.52,0,0,0,1.41.1,1,1,0,0,0,.75-.71,1.18,1.18,0,0,0-.07-.94,2.78,2.78,0,0,0-.67-.81c-.29-.25-.71-.55-1.23-.91a17.26,17.26,0,0,1-1.78-1.35,3.82,3.82,0,0,1-1-1.49,3.08,3.08,0,0,1,0-2,3.32,3.32,0,0,1,1.2-1.73,3.88,3.88,0,0,1,2-.73,6.5,6.5,0,0,1,2.52.32,7.88,7.88,0,0,1,2.58,1.39,8,8,0,0,1,1.9,2.14l-1.58,1.65a7.32,7.32,0,0,0-1.63-2,5.58,5.58,0,0,0-2-1.15,2.85,2.85,0,0,0-1.63-.11,1.25,1.25,0,0,0-.87.84,1.2,1.2,0,0,0,.07.95,2.46,2.46,0,0,0,.68.81,14.25,14.25,0,0,0,1.27.91,18.36,18.36,0,0,1,1.77,1.33,3.65,3.65,0,0,1,1,1.46,3,3,0,0,1,0,2,3.16,3.16,0,0,1-1.13,1.66,3.8,3.8,0,0,1-2,.71,6.39,6.39,0,0,1-2.5-.31,8.55,8.55,0,0,1-2.21-1.08,8,8,0,0,1-1.74-1.56l1.56-1.72A9.29,9.29,0,0,0,127.66,394Z"/><path class="cls-2" d="M115.8,381.39a3.09,3.09,0,0,0-1.7-1.73,3,3,0,0,0-2.39-.18,3.21,3.21,0,0,0-1.73,1.78L106.83,388l-2.19-1,3.15-6.73a5.72,5.72,0,0,1,1.81-2.3,4.58,4.58,0,0,1,2.52-.89,6.93,6.93,0,0,1,5.3,2.49,4.48,4.48,0,0,1,1,2.49,5.79,5.79,0,0,1-.61,2.88l-3.14,6.72-2.19-1,3.14-6.72A3.17,3.17,0,0,0,115.8,381.39Z"/><path class="cls-2" d="M88.32,375.86a4,4,0,0,1,.64-3.4,4.31,4.31,0,0,1,2.92-2.11,5.25,5.25,0,0,1,3.75,1l2.32,1.5,2-3.13,2,1.32-6.84,10.59-4.35-2.8A5.45,5.45,0,0,1,88.32,375.86Zm4.18-3.31a2.21,2.21,0,0,0-1.58,1.09,2.1,2.1,0,0,0-.32,1.85,3.32,3.32,0,0,0,1.45,1.63l2.21,1.42,2.53-3.92-2.21-1.43A3.33,3.33,0,0,0,92.5,372.55Z"/><path class="cls-2" d="M72.61,363.5a4,4,0,0,1,1.08-3.29,4.38,4.38,0,0,1,3.18-1.72A5.27,5.27,0,0,1,80.45,360l2.1,1.78L85,358.92l1.84,1.56-8.17,9.62-3.94-3.35A5.49,5.49,0,0,1,72.61,363.5Zm4.58-2.74a2.14,2.14,0,0,0-1.7.88,2.07,2.07,0,0,0-.57,1.79,3.34,3.34,0,0,0,1.23,1.8l2,1.7,3-3.56-2-1.7A3.32,3.32,0,0,0,77.19,360.76Z"/><path class="cls-2" d="M63.86,356.58l-1.64-1.78,7.67-7.07-3.69-4,1.6-1.48L73.13,348Z"/><path class="cls-2" d="M46.36,335l9.57-1.26,3.34-2.42,1.42,2-3.27,2.36-4.19,8.84-1.44-2,2.79-6.26-6.79.73Z"/><path class="cls-2" d="M40.64,311.71a1.92,1.92,0,0,1,1-1.08,2,2,0,0,1,1.5-.12,1.78,1.78,0,0,1,1.08,1,1.7,1.7,0,0,1,.06,1.43,2.13,2.13,0,0,1-2.51,1.2,1.9,1.9,0,0,1-1.15-2.4Z"/><path class="cls-2" d="M27.23,285.43a4.31,4.31,0,0,0,1.15,3.83,4,4,0,0,0,1.88,1.08,4.32,4.32,0,0,0,2.23,0,4.27,4.27,0,0,0,1.93-1.09,4.2,4.2,0,0,0,1.1-4.1,4.46,4.46,0,0,0-.84-1.65,5.46,5.46,0,0,0-1.48-1.27l1.17-1.79a7.58,7.58,0,0,1,2.13,1.82,6.64,6.64,0,0,1,1.27,5.87A6.33,6.33,0,0,1,36.11,291a6.47,6.47,0,0,1-3,1.68A6.32,6.32,0,0,1,26.89,291a6.93,6.93,0,0,1-1.84-5.75,6.56,6.56,0,0,1,.87-2.53l2.07.91A4.75,4.75,0,0,0,27.23,285.43Z"/><path class="cls-2" d="M33.79,264l-3.43,2.63a4,4,0,0,1,.07.45l.36,2.82,3.69-.46.3,2.39-12.52,1.58-.66-5.22a5.77,5.77,0,0,1,.65-3.9,4,4,0,0,1,3-1.72,4.71,4.71,0,0,1,2.58.32,3.9,3.9,0,0,1,1.79,1.65l3.8-3.27Zm-5.11,6.17-.36-2.82a3.18,3.18,0,0,0-.85-2,2.16,2.16,0,0,0-1.84-.49,2.09,2.09,0,0,0-1.63.93,3.33,3.33,0,0,0-.31,2.15l.36,2.82Z"/><path class="cls-2" d="M20.39,252.4l.06-9.24h2.11l0,6.83,3.12,0,0-6.13,2.11,0,0,6.13,3.17,0L31,243h2.11L33,252.48Z"/><path class="cls-2" d="M35,225l-2.79.74-.85,6.1,2.48,1.48-.35,2.48-11.72-7.23.34-2.48,13.25-3.66Zm-5.58,5.7.62-4.39-5.55,1.45Z"/><path class="cls-2" d="M24.28,214.14l2.63-9.94,2.08.55-1,3.79,10.12,2.68-.62,2.35-10.12-2.68-1,3.8Z"/><path class="cls-2" d="M30,195l3.46-8.58,2,.79-2.55,6.33,2.89,1.17L38.06,189l2,.78-2.29,5.69,2.94,1.18,2.63-6.53,2,.78-3.54,8.78Z"/><path class="cls-2" d="M49.75,159.24a6.48,6.48,0,0,1,3.28-.69,6.25,6.25,0,0,1,3.21,1.12,6.38,6.38,0,0,1,2.8,5.91,6.88,6.88,0,0,1-1.21,3.31,6.77,6.77,0,0,1-2.64,2.33,6.24,6.24,0,0,1-3.3.68,6.37,6.37,0,0,1-6-7,7,7,0,0,1,1.22-3.3A7.11,7.11,0,0,1,49.75,159.24Zm-1.56,5.63a4.17,4.17,0,0,0,.4,2.17,4.35,4.35,0,0,0,3.6,2.44,4.41,4.41,0,0,0,2.18-.41,4.11,4.11,0,0,0,1.68-1.44,4,4,0,0,0,.71-2.06,4.34,4.34,0,0,0-1.91-3.86,4.28,4.28,0,0,0-2.12-.75,4.12,4.12,0,0,0-2.15.4,4.19,4.19,0,0,0-1.65,1.42A4.29,4.29,0,0,0,48.19,164.87Z"/><path class="cls-2" d="M66.71,152.56a3,3,0,0,0,2.15-1.1,3,3,0,0,0,.9-2.22,3.22,3.22,0,0,0-1.18-2.19l-5.47-5,1.63-1.78,5.48,5a5.89,5.89,0,0,1,1.65,2.42,4.47,4.47,0,0,1,.09,2.66,6.2,6.2,0,0,1-1.49,2.59A6.28,6.28,0,0,1,68,154.67a4.47,4.47,0,0,1-2.68.15,5.84,5.84,0,0,1-2.56-1.43l-5.47-5,1.63-1.78,5.48,5A3.11,3.11,0,0,0,66.71,152.56Z"/><path class="cls-2" d="M71.56,133.76l7.86-6.63,1.39,1.64-3,2.53,6.75,8-1.86,1.56-6.75-8-3,2.53Z"/><path class="cls-2" d="M95,117.31a5.8,5.8,0,0,1,3.18.63,6.59,6.59,0,0,1,3.51,5.49,5.91,5.91,0,0,1-.78,3.16,7.18,7.18,0,0,1-2.46,2.54l-4.33,2.79L87.28,121.3l4.42-2.83A7.06,7.06,0,0,1,95,117.31Zm3.89,8.38a3.71,3.71,0,0,0,.42-2,4.3,4.3,0,0,0-.72-2.09A4.35,4.35,0,0,0,96.94,120a3.83,3.83,0,0,0-2.06-.46,4.27,4.27,0,0,0-2.07.7l-2.35,1.51,4.52,7,2.43-1.55A4.16,4.16,0,0,0,98.87,125.69Z"/><path class="cls-2" d="M114.45,107.09a6.29,6.29,0,0,1,5.33,3.72,6.36,6.36,0,0,1-.66,6.51,6.73,6.73,0,0,1-2.75,2.2,6.8,6.8,0,0,1-3.46.64,6.52,6.52,0,0,1-3.18-1.13,6.36,6.36,0,0,1-2.17-2.63,6.31,6.31,0,0,1,.67-6.47,7,7,0,0,1,2.76-2.19A6.94,6.94,0,0,1,114.45,107.09Zm-4.24,4a4.1,4.1,0,0,0-.78,2.06,4.18,4.18,0,0,0,.37,2.22,4.14,4.14,0,0,0,1.44,1.73,4.41,4.41,0,0,0,2.08.78,4.19,4.19,0,0,0,3.86-1.76,4.31,4.31,0,0,0-5.26-6.44A4.2,4.2,0,0,0,110.21,111.1Z"/><path class="cls-2" d="M135.35,99.84a6.26,6.26,0,0,1,4.74,4.45,6.25,6.25,0,0,1,.08,3.4,6.47,6.47,0,0,1-1.67,2.94,6.91,6.91,0,0,1-3,1.79,6.77,6.77,0,0,1-3.51.12,6.4,6.4,0,0,1-3-1.57,6.4,6.4,0,0,1-.17-9.22,7.29,7.29,0,0,1,6.56-1.91Zm-4.78,3.35a4.24,4.24,0,0,0-1.07,1.93,4.39,4.39,0,0,0,1.23,4.17,4.38,4.38,0,0,0,1.94,1.07,4.09,4.09,0,0,0,2.22,0,4,4,0,0,0,1.86-1.14,4.3,4.3,0,0,0,1-4.19,4.27,4.27,0,0,0-1.15-1.93,4.22,4.22,0,0,0-1.92-1,4,4,0,0,0-2.18,0A4.17,4.17,0,0,0,130.57,103.19Z"/><path class="cls-2" d="M157.9,107.58l-2.69-3.38a3.28,3.28,0,0,1-.44.08l-2.82.41.53,3.67-2.39.34L148.3,96.22l5.2-.75a5.7,5.7,0,0,1,3.91.58,4,4,0,0,1,1.78,3,4.77,4.77,0,0,1-.27,2.59,4,4,0,0,1-1.63,1.82l3.34,3.74Zm-6.25-5,2.82-.4a3.19,3.19,0,0,0,2-.89,2.16,2.16,0,0,0,.47-1.85,2.08,2.08,0,0,0-1-1.61,3.29,3.29,0,0,0-2.15-.28L151,98Z"/><path class="cls-2" d="M181.1,94l9.22.6-.14,2.1-6.81-.44-.2,3.11,6.11.4-.14,2.1-6.11-.4-.21,3.16,7,.47-.13,2.1-9.45-.62Z"/><path class="cls-2" d="M199.93,95.78l2.77.55,2,4.63,3.66-3.5,2.81.56-5.33,5.09,3.23,7.35-2.85-.56L204,104.85l-4,3.8-2.78-.56,5.72-5.46Z"/><path class="cls-2" d="M229,104.64a4,4,0,0,1,.21,3.45,4.34,4.34,0,0,1-2.32,2.77,5.22,5.22,0,0,1-3.87,0l-2.61-.89-1.2,3.52-2.28-.78L221,100.72l4.9,1.66A5.42,5.42,0,0,1,229,104.64Zm-3.24,4.22a2.44,2.44,0,0,0,1.12-3.31,3.38,3.38,0,0,0-1.8-1.22l-2.49-.84-1.5,4.42,2.49.84A3.15,3.15,0,0,0,225.8,108.86Z"/><path class="cls-2" d="M239.87,107.88l8.3,4.07-.93,1.89-6.13-3-1.38,2.8,5.5,2.7-.93,1.9-5.5-2.7-1.4,2.84,6.33,3.11-.93,1.89-8.49-4.17Z"/><path class="cls-2" d="M257,132.16l.26-4.32-.38-.23L254.48,126l-2.06,3.09-2-1.34,7-10.49,4.37,2.93a5.62,5.62,0,0,1,2.51,3,3.94,3.94,0,0,1-.67,3.41,4.83,4.83,0,0,1-1.93,1.75,4,4,0,0,1-2.43.26v5Zm-1.3-7.9,2.37,1.58a3.11,3.11,0,0,0,2.06.66,2.13,2.13,0,0,0,1.58-1.06,2.1,2.1,0,0,0,.37-1.84,3.34,3.34,0,0,0-1.42-1.64l-2.36-1.58Z"/><path class="cls-2" d="M274.25,129.51l1.85,1.55L268,140.71l-1.85-1.56Z"/><path class="cls-2" d="M284.13,138.37l6.4,6.67L289,146.51l-4.73-4.94L282,143.73l4.24,4.42-1.53,1.46-4.23-4.42-2.29,2.19,4.87,5.09-1.52,1.46L275,147.1Z"/><path class="cls-2" d="M302.63,160.34l1.38,1.89-10.2,7.43-1.35-1.85,3.2-10.35-7,5.11-1.39-1.91,10.2-7.43,1.34,1.85-3.2,10.39Z"/><path class="cls-2" d="M311.31,179.5a4.44,4.44,0,0,0-.49-1.83,4.32,4.32,0,0,0-1.51-1.63,4,4,0,0,0-2.08-.62,4.27,4.27,0,0,0-2.17.52,4.39,4.39,0,0,0-1.63,1.51,4.07,4.07,0,0,0-.64,2.08,4.13,4.13,0,0,0,.51,2.16,4.34,4.34,0,0,0,1.21,1.41,5.06,5.06,0,0,0,1.72.9l-.72,2a7.37,7.37,0,0,1-2.49-1.28,6.4,6.4,0,0,1-1.78-2.08,6.53,6.53,0,0,1-.81-3.34,6.3,6.3,0,0,1,.95-3.21,6.45,6.45,0,0,1,2.48-2.32,6.32,6.32,0,0,1,6.5.26,6.69,6.69,0,0,1,2.34,2.57,6.79,6.79,0,0,1,.78,2.59,6.39,6.39,0,0,1-.28,2.66l-2.21-.4A4.9,4.9,0,0,0,311.31,179.5Z"/><path class="cls-2" d="M318.92,190.16l3.26,8.65-2,.74-2.41-6.39-2.92,1.1L317,200l-2,.75L312.91,195l-3,1.12,2.48,6.6-2,.74-3.33-8.85Z"/><path class="cls-2" d="M324.34,215.23a5.74,5.74,0,0,0-.1-1.81,2.49,2.49,0,0,0-.63-1.26,1,1,0,0,0-1-.29,1.23,1.23,0,0,0-.76.55,2.6,2.6,0,0,0-.36,1q-.09.57-.15,1.53a16.18,16.18,0,0,1-.24,2.22,3.79,3.79,0,0,1-.77,1.62,3.15,3.15,0,0,1-1.76,1,3.39,3.39,0,0,1-2.1-.14,3.92,3.92,0,0,1-1.66-1.36,6.28,6.28,0,0,1-1-2.33,7.79,7.79,0,0,1-.13-2.93,8,8,0,0,1,.85-2.72l2.24.5a7.48,7.48,0,0,0-.86,2.41,5.72,5.72,0,0,0,0,2.27,2.8,2.8,0,0,0,.74,1.45,1.18,1.18,0,0,0,1.16.32,1.23,1.23,0,0,0,.79-.55,2.52,2.52,0,0,0,.34-1,14.67,14.67,0,0,0,.14-1.55,15.87,15.87,0,0,1,.23-2.2,3.55,3.55,0,0,1,.74-1.6,3,3,0,0,1,1.73-1,3.15,3.15,0,0,1,2,.13,3.72,3.72,0,0,1,1.63,1.32,6.47,6.47,0,0,1,1,2.3,8.66,8.66,0,0,1-.24,4.75l-2.28-.46A9.39,9.39,0,0,0,324.34,215.23Z"/><path class="cls-2" d="M323.9,242.21a1.89,1.89,0,0,1-1.35.6,1.92,1.92,0,0,1-1.43-.45,1.79,1.79,0,0,1-.63-1.31,1.74,1.74,0,0,1,.48-1.35,2,2,0,0,1,1.38-.59,2,2,0,0,1,1.41.44,1.73,1.73,0,0,1,.61,1.29A1.8,1.8,0,0,1,323.9,242.21Z"/><path class="cls-2" d="M457.09,117.08c13.78-17.75,39.43-50.8,44-56.87,2.85-3.81,12.19-16.67,12.74-22a7.92,7.92,0,0,0-2.09-6.67,7.25,7.25,0,0,0-6.16-1.83c-7.3,1-14,3.68-20.22,6.47a273.25,273.25,0,0,0-38.17,21.25c-10,6.61-20.3,13.44-29.76,21.75-3.23,2.84-6.6,5.64-9.86,8.35-5.29,4.4-10.76,9-15.85,13.83-9.79,9.39-21,20.82-29.61,34.45l-.13.21c-2.31,3.63-4.69,7.38-4.85,12.34-.07,2.17-.28,8.8,6.87,10.26,5.5,1.12,10.71.19,16-.94,16.06-3.45,31.45-8.9,44.37-13.77a1.67,1.67,0,0,0-1.17-3.13c-12.82,4.83-28.06,10.22-43.9,13.62-4.93,1.07-9.76,1.93-14.63.94-2.63-.54-4.36-1.91-4.2-6.87.14-4.05,2.17-7.26,4.33-10.66l.13-.21c8.46-13.33,19.46-24.58,29.11-33.83,5-4.79,10.42-9.3,15.67-13.66,3.28-2.73,6.67-5.55,9.93-8.42,9.29-8.15,19.51-14.93,29.4-21.48a270.08,270.08,0,0,1,37.7-21c5.95-2.69,12.39-5.32,19.28-6.2a3.92,3.92,0,0,1,3.38.91,4.68,4.68,0,0,1,1.11,3.92c-.35,3.3-6.52,12.85-12.1,20.33-4.51,6.05-30.15,39.08-43.92,56.82L449,122c-1.48,1.91-13.27,15.81-27.09,31.87a6.07,6.07,0,0,0-.44.5,0,0,0,0,0,0,0c-19.91,23.12-43.82,50.49-47.32,53.08a1.67,1.67,0,0,0-.34,2.34,1.7,1.7,0,0,0,1.61.66,1.82,1.82,0,0,0,.73-.31c3.78-2.81,28.38-30.95,48.52-54.36,1.9-1.92,7-5.81,9.65-7.79,1.08-.82,1.88-1.44,2.08-1.61l1.34-.95a54.26,54.26,0,0,1,11.36-6.59l.15-.08a31.82,31.82,0,0,1,8.55-2.64,3.31,3.31,0,0,0,3.07,1.12l.08,0a7.52,7.52,0,0,0,5-4.16,7.61,7.61,0,0,0,5.94-.73,29,29,0,0,0,5.22-5.7,3.66,3.66,0,0,1-.49,1.06c0,.09-.07.19-.11.28a3.05,3.05,0,0,0-.13.32h0a1.38,1.38,0,0,0,.15,1c0,.09.07.19.12.28a1.83,1.83,0,0,0,.47.45h0a1.53,1.53,0,0,0,.27.11,1.89,1.89,0,0,0,.33.13h0a9.64,9.64,0,0,0,3.25.05c2.9-.48,5.23-2.28,7.26-4A106.82,106.82,0,0,0,500,113.65l1.92-2.29,2-2.39c-.71,1.29-1.39,2.51-2.09,3.72l-.94,1.55c-.65,1.05-1.21,2-1.74,2.81l-.08.08a1.51,1.51,0,0,0-.3.52,54.94,54.94,0,0,1-4.49,6.1,1.67,1.67,0,1,0,2.56,2.15,56.8,56.8,0,0,0,4.94-6.75,10.73,10.73,0,0,1,4.28-2.85c-.21.46-.45.92-.68,1.38-1.16,2.28-2.15,4.25-.76,5.68a2.92,2.92,0,0,0,2.82.67,28.78,28.78,0,0,0,6.76-2.56,1.68,1.68,0,0,0,.79-2.23,1.66,1.66,0,0,0-2.23-.79,38.12,38.12,0,0,1-5.06,2.09c.21-.46.46-1,.66-1.35.43-.85.87-1.72,1.22-2.6a2.57,2.57,0,0,0-.9-3.36,4.1,4.1,0,0,0-3.18-.22c.59-1.05,1.17-2.09,1.79-3.22C510,105,513.25,99,521.28,86.52a1.62,1.62,0,0,0,.11-.28,2.15,2.15,0,0,0,.13-.32,1.22,1.22,0,0,0,0-.33,1.6,1.6,0,0,0,0-.31,3.05,3.05,0,0,0-.13-.32,1.31,1.31,0,0,0-.12-.27,1.36,1.36,0,0,0-.24-.24,1.61,1.61,0,0,0-.22-.23h0a1.57,1.57,0,0,0-.28-.1,2.33,2.33,0,0,0-.33-.14,2.17,2.17,0,0,0-.26,0,1.2,1.2,0,0,0-.38,0,.85.85,0,0,0-.22.09,1.22,1.22,0,0,0-.37.16,1,1,0,0,0-.2.2,1.28,1.28,0,0,0-.26.26c-5.74,8.66-12.52,16.71-19.08,24.5l-1.93,2.31a104.72,104.72,0,0,1-11.37,12.26c-1.77,1.53-3.55,2.91-5.63,3.24a5.77,5.77,0,0,0-.67-4,2.82,2.82,0,0,0-2.58-1.61,1.85,1.85,0,0,0-1.61,1.27c-.77,2.11-4.67,6.28-5.37,6.79-1.46.85-2.73.69-5.06-.07a5.77,5.77,0,0,0-5.29-1.21c-1.14.35-3.11,1.46-3.77,4.87a35.36,35.36,0,0,0-8.49,2.82A56.46,56.46,0,0,0,436,142.6c8.4-9.83,14.57-17.15,15.65-18.55Zm3.78,14.3a2.3,2.3,0,0,1,2,.47c-.25.81-2,2.22-2.5,2.13,0,0-.05,0-.11-.18a1.66,1.66,0,0,0-.72-.76A2.28,2.28,0,0,1,460.87,131.38Z"/><path class="cls-2" d="M679.2,81.72c-2.56,2.37-5.85,2.65-9.59,2.77-.06,0-.11,0-.17,0a1.59,1.59,0,0,0-.13-.13c10.52-9.45,17.91-32.33,15.38-36a3.48,3.48,0,0,0-3-1.46c-2,0-4,1.37-5.41,3.58-1.31,2-2.76,6.08-4.6,11.25-1,2.75-2.09,5.88-3.32,9.07-.43,1.12-2.26,7.21-4,13.73-3.22,3.7-6.25,5.53-8.63,5.18,3-2,5.54-4.49,5.49-6.6,0-.71-.35-2.42-3-2.92-3.9-.76-6.64,2.2-7.31,5.5a7.72,7.72,0,0,0,0,3.06,15.25,15.25,0,0,1-3.39,1.34,2.45,2.45,0,0,1-1.43.09,3.24,3.24,0,0,1,.16-2c.14-.49.28-1,.43-1.52.24-.88.49-1.78.67-2.23a12.59,12.59,0,0,0-3-3c-4-1.13-6.47,3.58-7.79,6.11-.21.4-.46.88-.59,1.08a9.22,9.22,0,0,0-.89.94,11.45,11.45,0,0,1-5,3.6c0-.54,0-1.1,0-1.68a10.71,10.71,0,0,1,.21-3.61,1.05,1.05,0,0,0,.06-.24,1.56,1.56,0,0,0,.1-.37,1.64,1.64,0,0,0,0-.38,2.42,2.42,0,0,0,0-.25,0,0,0,0,1,0,0,1.9,1.9,0,0,0-.2-.37,1.32,1.32,0,0,0-.12-.2.88.88,0,0,0-.15-.12,1.44,1.44,0,0,0-.37-.28h0s-.1,0-.15,0a1.63,1.63,0,0,0-.47-.12,1.73,1.73,0,0,0-.32,0,1.43,1.43,0,0,0-.29,0,9.22,9.22,0,0,1-2.78.38l-.15-.06a5.24,5.24,0,0,0,0-.72,1.67,1.67,0,1,0-3.32.34c.26,2.56-1.87,10.14-5.27,11.1h0c-4.85,1.4-9.25,2.49-13.23,3.34,3.76-7.5,14.39-32.24,14.87-33.34,0,0,0-.11,0-.16a1.3,1.3,0,0,0,.07-.33,1.71,1.71,0,0,0,0-.32,1.88,1.88,0,0,0-.06-.31,1.72,1.72,0,0,0-.11-.29,2.33,2.33,0,0,0-.17-.26,1.75,1.75,0,0,0-.23-.24s-.07-.09-.12-.13-.1,0-.15-.06l-.14-.1-.17,0a1.83,1.83,0,0,0-.32-.07,1.71,1.71,0,0,0-.32,0,1.45,1.45,0,0,0-.3.06,1.17,1.17,0,0,0-.31.12,1.32,1.32,0,0,0-.25.16,1.88,1.88,0,0,0-.25.24s-.09.06-.12.11c-11.7,17-24.49,24.28-33.36,25.48,11.07-11.75,23.37-27.27,31.43-43.8,10.07-20.64,9.57-32.8,8.38-38.22a10.28,10.28,0,0,0-6.07-7.26,16.41,16.41,0,0,0-14.27,1c-10.31,5.87-31.31,28.76-37,73.52-1,12.86,7.33,16.45,8,16.72a12.56,12.56,0,0,0,2.08.85,146.38,146.38,0,0,1-15,13.25c-3.53,2.59-12.79,6.44-17.2,4.25a1.67,1.67,0,0,0-1.49,3,13,13,0,0,0,7.81.71,33.4,33.4,0,0,0,12.86-5.26,156.36,156.36,0,0,0,17.08-15.32,23,23,0,0,0,4.51-.3c7.67-1.25,17.38-6.27,27-16.73-3.7,8.47-8.39,19-10.19,22.41,0,0,0,0,0,0l0,0-.68,1.39c-15.47,2.9-23.15,1.88-23.25,1.86a1.67,1.67,0,0,0-.59,3.29c3.92.85,10.11,6.07,11.91,11.28a1.65,1.65,0,0,0,1,1,1.8,1.8,0,0,0,.83.07,1.74,1.74,0,0,0,.62-.24c5.26-3.34,8.06-7.18,11.7-14.31,4.7-.93,10.05-2.21,16.07-4h0c4.07-1.17,6.37-6.52,7.25-10.62a7.13,7.13,0,0,0,1.79.07c0,.77,0,1.58,0,2.38a21.83,21.83,0,0,1,0,2.28,1.71,1.71,0,0,0-1.49,1.49,1.68,1.68,0,0,0,1.49,1.84,2.76,2.76,0,0,0,.76,0c.15,0,.28-.1.42-.14a2.17,2.17,0,0,0,.36,0h0a14.29,14.29,0,0,0,8.52-4.38,3.68,3.68,0,0,0,4.1,1.92A4.86,4.86,0,0,0,644,92.82a4.76,4.76,0,0,0,4.29.6,20.54,20.54,0,0,0,4.13-1.68A4.72,4.72,0,0,0,654.81,93a7.59,7.59,0,0,0,2.84.06,12.36,12.36,0,0,0,5.27-2.46c-.69,2.94-1.27,5.68-1.56,7.76a1.79,1.79,0,0,0-.16.44,5.1,5.1,0,0,0-.05,2.42c0,.16,0,.3,0,.42a1.67,1.67,0,0,0,1.32,1.34,4.55,4.55,0,0,0,1.68.54,1.55,1.55,0,0,0,.48,0,1.65,1.65,0,0,0,1.11-.7c3.86-5.63,5.89-9.93,6-12.78a6.31,6.31,0,0,0-.29-2.29,26.51,26.51,0,0,0,2.84-.29,13,13,0,0,0,7.1-3.28,1.67,1.67,0,1,0-2.27-2.45Zm-7.68-9.64c1.25-3.24,2.37-6.39,3.35-9.16,1.7-4.76,3.16-8.87,4.25-10.54a4.26,4.26,0,0,1,2.52-2.05.67.67,0,0,1,.24,0c.53,3.09-4.41,20.24-12.72,29.5C670.16,76.23,671.06,73.27,671.52,72.08ZM574,89.44l-.11,0s-.06,0-.1-.06-6.74-2.71-5.91-13.27c6.85-54.2,35-70.79,35.3-70.95a12.93,12.93,0,0,1,11.25-.88,6.92,6.92,0,0,1,4.16,4.92c1.1,5,1.51,16.3-8.11,36C602,62.54,588.81,78.75,577.41,90.5A10.07,10.07,0,0,1,574,89.44Zm15.69,24.67a24.84,24.84,0,0,0-6.8-8,115.92,115.92,0,0,0,14.46-1.59C594.72,109.33,592.6,112,589.7,114.11Zm50.64-22.78c-.33.07-.56.14-.75-.62-.31-1.2.07-1.92,1.17-3.54a1.94,1.94,0,0,0,.17-.42c.8-1.22,1.75-2.32,2.57-2.08a1.51,1.51,0,0,0,.3,0c-.11.37-.21.75-.32,1.15s-.26.9-.39,1.36a4.89,4.89,0,0,0-.14.47,8.69,8.69,0,0,1-.44,1.2l-.09.18C641.58,90.72,641.25,91.18,640.34,91.33Zm13.91-4.9c.22-1.06,1-2.67,2.46-2.91a2.78,2.78,0,0,1,.95,0l.13,0a13.67,13.67,0,0,1-3.61,3.29A4.3,4.3,0,0,1,654.25,86.43Zm14.23,3.42c-.09,1.75-1.45,4.78-3.78,8.52.44-2.73,1.43-7,2.53-11.32A3.63,3.63,0,0,1,668.48,89.85Z"/></g></g></svg>