<svg id="Group_1660" data-name="Group 1660" xmlns="http://www.w3.org/2000/svg" width="83.307" height="83.308" viewBox="0 0 83.307 83.308">
  <defs>
    <style>
      .cls-1 {
        fill: #5d0000;
      }
    </style>
  </defs>
  <path id="Path_3269" data-name="Path 3269" class="cls-1" d="M45.733,11.584c11.122,0,12.439.042,16.832.243A23.05,23.05,0,0,1,70.3,13.261a12.906,12.906,0,0,1,4.789,3.116,12.905,12.905,0,0,1,3.116,4.79A23.047,23.047,0,0,1,79.639,28.9c.2,4.392.243,5.71.243,16.832s-.042,12.439-.243,16.832A23.049,23.049,0,0,1,78.2,70.3,13.794,13.794,0,0,1,70.3,78.2a23.056,23.056,0,0,1-7.735,1.434c-4.392.2-5.709.243-16.832.243s-12.44-.042-16.832-.243A23.055,23.055,0,0,1,21.167,78.2a12.908,12.908,0,0,1-4.789-3.116A12.907,12.907,0,0,1,13.261,70.3a23.054,23.054,0,0,1-1.434-7.735c-.2-4.392-.243-5.71-.243-16.832s.042-12.439.243-16.832a23.052,23.052,0,0,1,1.434-7.734,12.908,12.908,0,0,1,3.116-4.79,12.9,12.9,0,0,1,4.789-3.116A23.049,23.049,0,0,1,28.9,11.827c4.392-.2,5.71-.243,16.832-.243m0-7.505c-11.313,0-12.731.048-17.174.251A30.574,30.574,0,0,0,18.448,6.266a20.418,20.418,0,0,0-7.378,4.8,20.418,20.418,0,0,0-4.8,7.378A30.574,30.574,0,0,0,4.33,28.559c-.2,4.443-.251,5.861-.251,17.174s.048,12.731.251,17.174A30.574,30.574,0,0,0,6.266,73.018a20.419,20.419,0,0,0,4.8,7.378,20.417,20.417,0,0,0,7.378,4.8,30.574,30.574,0,0,0,10.111,1.936c4.443.2,5.861.251,17.174.251s12.731-.048,17.174-.251A30.574,30.574,0,0,0,73.018,85.2,21.3,21.3,0,0,0,85.2,73.018a30.574,30.574,0,0,0,1.936-10.111c.2-4.443.25-5.861.25-17.174S87.339,33,87.136,28.559A30.574,30.574,0,0,0,85.2,18.448a20.417,20.417,0,0,0-4.8-7.378,20.417,20.417,0,0,0-7.378-4.8A30.574,30.574,0,0,0,62.907,4.33c-4.443-.2-5.861-.251-17.174-.251Z" transform="translate(-4.079 -4.079)"/>
  <path id="Path_3270" data-name="Path 3270" class="cls-1" d="M148.025,126.635a21.39,21.39,0,1,0,21.39,21.39A21.39,21.39,0,0,0,148.025,126.635Zm0,35.275a13.885,13.885,0,1,1,13.884-13.885A13.885,13.885,0,0,1,148.025,161.91Z" transform="translate(-106.371 -106.371)"/>
  <circle id="Ellipse_624" data-name="Ellipse 624" class="cls-1" cx="4.998" cy="4.998" r="4.998" transform="translate(56.82 19.419) rotate(-45)"/>
</svg>
