<?xml version="1.0" encoding="utf-8"?>
<!-- Generator: Adobe Illustrator 23.0.3, SVG Export Plug-In . SVG Version: 6.00 Build 0)  -->
<svg version="1.1" id="Capa_1" xmlns="http://www.w3.org/2000/svg" xmlns:xlink="http://www.w3.org/1999/xlink" x="0px" y="0px"
	 viewBox="0 0 55 55" style="enable-background:new 0 0 55 55;" xml:space="preserve">
<style type="text/css">
	.st0{fill:#F9423A;}
</style>
<path class="st0" d="M54.6,2.2C54.3,2,54,1.9,53.7,2.1L36,8L19.2,4c0,0-0.1,0-0.1,0c-0.1,0-0.2,0-0.3,0l-18,4C0.3,8.1,0,8.5,0,9v43
	c0,0.3,0.1,0.6,0.4,0.8C0.6,52.9,0.8,53,1,53c0.1,0,0.1,0,0.2,0L19,49l16.8,3c0.1,0,0.1,0,0.2,0c0.1,0,0.2,0,0.4-0.1c0,0,0,0,0,0
	l18-7c0.4-0.2,0.6-0.5,0.6-0.9V3C55,2.7,54.8,2.4,54.6,2.2z M2,9.8l16-3.6v41L2,50.8V9.8z M20,6.3l15,3.5v40l-15-2.6V6.3z M53,43.3
	l-16,6.2V9.7l16-5.3V43.3z"/>
</svg>
