<?xml version="1.0" encoding="utf-8"?>
<!-- Generator: Adobe Illustrator 23.0.3, SVG Export Plug-In . SVG Version: 6.00 Build 0)  -->
<svg version="1.1" id="Capa_1" xmlns="http://www.w3.org/2000/svg" xmlns:xlink="http://www.w3.org/1999/xlink" x="0px" y="0px"
	 viewBox="0 0 60.1 60.1" style="enable-background:new 0 0 60.1 60.1;" xml:space="preserve">
<style type="text/css">
	.st0{fill:#F9423A;}
</style>
<path class="st0" d="M59.8,7.9c-0.2-0.3-0.6-0.4-0.9-0.4c-0.1,0-0.1,0-0.2,0l-58,15.8C0.3,23.5,0,23.9,0,24.3c0,0.4,0.3,0.8,0.7,1
	l21.2,7L20,47.4c0,0.4,0.1,0.8,0.5,1c0.2,0.1,0.3,0.1,0.5,0.1c0.2,0,0.4-0.1,0.6-0.2l7.8-5.9l6.8,9.7c0.2,0.3,0.5,0.4,0.8,0.4
	c0,0,0,0,0.1,0c0.3,0,0.7-0.2,0.8-0.5L59.9,9C60.1,8.6,60.1,8.2,59.8,7.9z M52.9,11.2l-30,19.2l-18.4-6L52.9,11.2z M22.3,45.3
	l1.4-11.1l4.6,6.5L22.3,45.3z M36.9,49.6L24.4,31.8l32.1-20.5L36.9,49.6z"/>
</svg>
