<svg xmlns="http://www.w3.org/2000/svg" viewBox="0 0 1096.88 232.93"><defs><style>.cls-1{fill:#ef453e;}</style></defs><title>Asset 15</title><g id="Layer_2" data-name="Layer 2"><g id="Layer_1-2" data-name="Layer 1"><path class="cls-1" d="M2.07,227.57A4.48,4.48,0,0,1,0,224q0-5.88,6.57-7.61,13.47-2.76,18.14-7.08t4.67-14.69V37.67q0-11.05-4.15-15.72T8.64,14.52Q1.38,12.79,1.38,7.26a4.92,4.92,0,0,1,1.9-4,7.71,7.71,0,0,1,5-1.55q12.45,0,25.93,1,17.27.69,23.84.68a185.9,185.9,0,0,0,19-1.37A226.08,226.08,0,0,1,107.83,0q42.49,0,67.39,18.14t24.87,49.6a87.07,87.07,0,0,1-9.66,41,71.8,71.8,0,0,1-28.69,29.37Q142.73,149,115.08,149q-9,0-14-2.76t-5-6.91a4.67,4.67,0,0,1,2.24-4,7.64,7.64,0,0,1,4.32-1.56,33.13,33.13,0,0,1,6.74.87,33.39,33.39,0,0,0,7.08.86q12.8,0,19.7-15.72t6.91-42q0-32.15-9-46.83T107.83,16.25q-19.36,0-19.36,18.31l-.34,159.66q0,10.36,5.7,14.52t21.25,7.6a9,9,0,0,1,5,2.42,7,7,0,0,1,1.55,4.84c0,3.46-1.85,5.18-5.53,5.18l-30.07-.69-28-.69q-6.23,0-24.88.69-13.83,1-27,1A6.89,6.89,0,0,1,2.07,227.57Z"/><path class="cls-1" d="M212.18,227.74a4.23,4.23,0,0,1-1.72-3.45c0-3.46,1.95-5.76,5.88-6.91q9.67-2.41,13.13-5c2.3-1.73,3.46-4.32,3.46-7.78V130q0-11.76-3.46-16.42t-11.4-5.7a4.19,4.19,0,0,1-3.12-2.25,9,9,0,0,1-1-4.32,7.05,7.05,0,0,1,1.21-4.15A4.73,4.73,0,0,1,218.07,95a166.88,166.88,0,0,0,28.33-8q12.45-4.84,28.68-12.1c4.16-1.83,6.69-2.76,7.61-2.76a4.58,4.58,0,0,1,3.63,1.38,5.08,5.08,0,0,1,1.21,3.46l-1.73,15.2Q283,115.79,283,128.56v75.69a8.84,8.84,0,0,0,3.45,7.25q3.45,2.77,13.13,5.88a13.55,13.55,0,0,1,4.67,2.42,5.25,5.25,0,0,1,1.56,4.15q0,4.83-5.19,4.83-6.57,0-22.46-.69-15.21-.69-20.73-.69-5.9,0-19.7.69-11.07,1-21.78,1A6,6,0,0,1,212.18,227.74ZM235.69,50.8a27.86,27.86,0,0,1-8.64-20.39A29.41,29.41,0,0,1,235.51,9,27.74,27.74,0,0,1,256.08.35a29.52,29.52,0,0,1,30.07,30.06A27.77,27.77,0,0,1,277.51,51a29.45,29.45,0,0,1-21.43,8.46A27.84,27.84,0,0,1,235.69,50.8Z"/><path class="cls-1" d="M348.35,223.6a68.78,68.78,0,0,1-27.13-26.09,72.7,72.7,0,0,1-9.85-37.5,81,81,0,0,1,11.07-41.47A83.48,83.48,0,0,1,352.33,88.3,79.74,79.74,0,0,1,394,77.07a77.94,77.94,0,0,1,38.88,10A76.85,76.85,0,0,1,461,113.87,67.48,67.48,0,0,1,471.38,150q0,23.16-9.67,42a72,72,0,0,1-28.86,29.89q-19.17,11.06-46.49,11.06A78.71,78.71,0,0,1,348.35,223.6Zm62.9-16.94q7.61-12.78,7.61-48.38,0-28.68-8.3-46.83T388.79,93.31a20.12,20.12,0,0,0-14.86,5.88q-5.9,5.88-8.12,18.49t-2.25,33.69a128.23,128.23,0,0,0,3.8,31.62q3.79,15,10.54,24.37t15,9.33Q405,216.69,411.25,206.66Z"/><path class="cls-1" d="M482.6,227.57a4.4,4.4,0,0,1-2.24-3.62c0-3,2.64-5.42,7.95-7.26q6.56-2.08,9.68-4.49t3.1-8.65V123.38q0-16.25-10.37-18a4.7,4.7,0,0,1-2.58-2.07,7.65,7.65,0,0,1-1.21-4.5c0-3.46,1.14-5.53,3.45-6.22q13.13-3.12,28.34-7.78a163.62,163.62,0,0,0,24.88-9.5c.46-.23,1.5-.81,3.11-1.73a8.51,8.51,0,0,1,3.8-1.38c2.3,0,3.46,1.5,3.46,4.49L553.28,84q-1,11.4-1,12.1c0,3,.23,4.72.7,5.18q13.13-12.09,24.52-18t26.27-5.88q19,0,31.11,13.48t12.09,36.29V203.9q0,6.22,2.94,8.47c2,1.5,5.24,2.93,9.85,4.32q6.9,2.42,6.91,7.26a4.6,4.6,0,0,1-1.9,3.62,6.22,6.22,0,0,1-4,1.56,201.73,201.73,0,0,1-20.73-1q-12.43-.69-18-.69c-3.91,0-9.8.23-17.62.69a192.06,192.06,0,0,1-20.4,1,5.57,5.57,0,0,1-3.8-1.56,4.74,4.74,0,0,1-1.72-3.62q0-4.84,6.56-7.26c4.37-1.39,7.43-2.82,9.15-4.32s2.6-4.32,2.6-8.47V135.82q0-12.78-5.52-20a17.43,17.43,0,0,0-14.52-7.26,32.87,32.87,0,0,0-11.41,1.9,56,56,0,0,0-11.4,6c-1.85,1.16-2.76,3.23-2.76,6.23V203.9c0,4.15.86,6.91,2.58,8.3s4.79,2.88,9.17,4.49,6.57,4,6.57,7.26a4.78,4.78,0,0,1-1.73,3.62,5.59,5.59,0,0,1-3.81,1.56,178.85,178.85,0,0,1-19.7-1q-11.74-.69-17.28-.69t-18.66.69q-10.37,1-21.08,1A8.1,8.1,0,0,1,482.6,227.57Z"/><path class="cls-1" d="M706.2,222.91a69.31,69.31,0,0,1-23.68-27.3,84.72,84.72,0,0,1-8.64-38.37,80,80,0,0,1,10.37-40.08,78.33,78.33,0,0,1,28.17-29A74,74,0,0,1,751.3,77.41,55.93,55.93,0,0,1,778.08,84a52.64,52.64,0,0,1,19.53,17.62,43.88,43.88,0,0,1,7.26,24.54q0,6.92-2.6,10.2c-1.73,2.19-4.44,3.28-8.11,3.28H725.72c-3.23,0-5.58.93-7.08,2.77s-2.24,5-2.24,9.33q0,19,12.09,31.79t31.11,12.78a43.4,43.4,0,0,0,17.61-3.62,101.47,101.47,0,0,0,18-10.54q3.1-2.41,4.84-2.42c2.52,0,3.79,1.5,3.79,4.49,0,2.07-.68,5.18-2.07,9.33q-5.18,15.56-21.94,27.48t-40.26,11.92A58.83,58.83,0,0,1,706.2,222.91ZM744,124.41q8.3,0,12.27-.34a31,31,0,0,0,7.08-1.38c.92-.23,1.79-1.39,2.6-3.46a19,19,0,0,0,1.2-6.91q0-9-5.7-14.69c-3.79-3.8-8.7-5.7-14.68-5.7q-10.37,0-18.66,8.64t-7.61,18.66a4.78,4.78,0,0,0,5.18,5.18Z"/><path class="cls-1" d="M847.19,222.91a69.29,69.29,0,0,1-23.67-27.3,84.58,84.58,0,0,1-8.63-38.37,80,80,0,0,1,10.36-40.08,78.18,78.18,0,0,1,28.17-29,74,74,0,0,1,38.87-10.72A55.93,55.93,0,0,1,919.07,84,52.57,52.57,0,0,1,938.6,101.6a43.8,43.8,0,0,1,7.26,24.54q0,6.92-2.59,10.2t-8.12,3.28H866.72c-3.22,0-5.59.93-7.08,2.77s-2.25,5-2.25,9.33q0,19,12.09,31.79t31.11,12.78a43.53,43.53,0,0,0,17.63-3.62,101.77,101.77,0,0,0,18-10.54q3.1-2.41,4.84-2.42,3.79,0,3.8,4.49c0,2.07-.7,5.18-2.07,9.33q-5.21,15.56-22,27.48t-40.26,11.92A58.83,58.83,0,0,1,847.19,222.91ZM885,124.41q8.28,0,12.26-.34a30.76,30.76,0,0,0,7.08-1.38c.93-.23,1.79-1.39,2.6-3.46a19,19,0,0,0,1.21-6.91q0-9-5.7-14.69t-14.68-5.7q-10.38,0-18.67,8.64t-7.6,18.66a4.79,4.79,0,0,0,5.18,5.18Z"/><path class="cls-1" d="M957.61,227.57a4.47,4.47,0,0,1-2.08-3.62q0-4.84,8-7.26c5-1.61,8.46-3.29,10.19-5s2.58-4.44,2.58-8.13V123c0-4.84-.62-8.58-1.89-11.23s-3.75-4.55-7.43-5.7a7.35,7.35,0,0,1-3.63-2.08c-.81-.91-1.21-2.42-1.21-4.49,0-3.45,1.5-5.53,4.5-6.22q12.43-2.76,26.25-7.26a211.3,211.3,0,0,0,23.51-9c4.37-2.54,7.26-3.81,8.64-3.81,2.3,0,3.46,1.39,3.46,4.15l-.35,10.37-.7,17.28c0,2.31.46,3.46,1.39,3.46a113.29,113.29,0,0,1,21.08-22.12q11.74-9.33,23.85-9.33,23.14,0,23.15,17.28,0,9-6.91,18.83T1075.45,123a18.21,18.21,0,0,1-6.91-1.56,73.8,73.8,0,0,1-7.6-3.62q-9.69-4.84-13.14-4.84-10,0-15.72,7.43t-5.69,26.09v53.22c0,4.84,1.31,8.41,4,10.72s7.31,4.49,14,6.56q7.59,2.07,7.6,6.92a5,5,0,0,1-1.55,3.62,5.39,5.39,0,0,1-4,1.56q-11.42,0-23.51-1-15.21-.69-20.73-.69t-18.66.69q-10.37,1-21.09,1A7.8,7.8,0,0,1,957.61,227.57Z"/></g></g></svg>